<?xml version="1.0" encoding="UTF-8"?>
<svg version="1.1" xmlns="http://www.w3.org/2000/svg" width="710" height="496">
<path d="M0 0 C234.3 0 468.6 0 710 0 C710 163.68 710 327.36 710 496 C475.7 496 241.4 496 0 496 C0 332.32 0 168.64 0 0 Z " fill="#FEFEFE" transform="translate(0,0)"/>
<path d="M0 0 C2.47641019 2.17746345 4.84799846 4.42629719 7.20703125 6.73046875 C7.73893066 7.23803711 8.27083008 7.74560547 8.81884766 8.26855469 C42.31374757 40.26005932 65.4545256 86.06469759 67.51953125 132.79296875 C67.0812906 148.51807446 60.35838821 160.96698508 49.20703125 171.73046875 C43.36835764 176.62415473 38.65719852 178.17761331 31.109375 178.05859375 C21.79185402 177.00519972 14.97554212 169.56722238 9.20703125 162.73046875 C0.93746069 151.11606328 -2.79747243 140.4397505 -5.30053711 126.61450195 C-10.99234291 95.46530227 -28.02932528 66.6695793 -54.21777344 48.34619141 C-74.5820529 34.63467629 -97.27794979 28.5098558 -121.66796875 28.41796875 C-122.35627777 28.41501801 -123.04458679 28.41206726 -123.75375366 28.4090271 C-134.90665318 28.39816046 -145.08884556 29.51923179 -155.79296875 32.73046875 C-157.13101563 33.03597656 -157.13101563 33.03597656 -158.49609375 33.34765625 C-180.6240903 38.69647661 -202.05577554 56.43318635 -213.82397461 75.57128906 C-224.48059481 93.55760895 -230.18543293 111.16323421 -230.04296875 132.10546875 C-230.05070312 133.2346875 -230.0584375 134.36390625 -230.06640625 135.52734375 C-229.99826687 165.30425312 -219.44785518 191.40168717 -198.79296875 212.73046875 C-197.57287109 213.99117188 -197.57287109 213.99117188 -196.328125 215.27734375 C-177.43857151 233.55567902 -152.81447748 242.14831724 -126.84057617 241.99121094 C-124.73001508 241.98046644 -122.62030145 241.99117891 -120.50976562 242.00390625 C-113.75971053 242.00984968 -107.39234899 241.70417441 -100.80297852 240.17089844 C-94.43077468 238.77463271 -88.34441447 240.06514333 -82.66796875 243.10546875 C-73.74333295 249.041127 -68.06022065 258.59020011 -62.13671875 267.30859375 C-59.20314399 271.62356074 -56.13915682 275.84500132 -53.06665039 280.06176758 C-49.10332107 285.55272191 -47.10147594 288.81554062 -47.79296875 295.73046875 C-49.42359541 300.30294763 -51.34561399 304.44669198 -55.79296875 306.73046875 C-63.64179861 309.71931641 -71.58495036 311.04668312 -79.85546875 312.35546875 C-81.19216297 312.57357207 -82.52875245 312.79231827 -83.86523438 313.01171875 C-87.50530314 313.60229575 -91.1480652 314.17063596 -94.79296875 314.73046875 C-95.51178223 314.84970703 -96.2305957 314.96894531 -96.97119141 315.09179688 C-103.93383629 316.14062661 -111.01830922 315.97356999 -118.04296875 315.98046875 C-119.10960251 315.98197937 -119.10960251 315.98197937 -120.19778442 315.98352051 C-131.96553443 315.97227517 -143.25882526 315.13134709 -154.79296875 312.73046875 C-155.49276855 312.59656738 -156.19256836 312.46266602 -156.91357422 312.32470703 C-200.83169622 303.87694516 -243.21695466 277.42199087 -268.45703125 240.2890625 C-283.7849175 217.15684449 -293.63609705 194.02428122 -298.79296875 166.73046875 C-299.04175781 165.46976563 -299.29054688 164.2090625 -299.546875 162.91015625 C-307.10075589 117.37557355 -295.3750011 67.19404084 -268.98046875 29.60546875 C-263.6869375 22.28606962 -257.82713876 15.44477101 -251.79296875 8.73046875 C-251.19097656 8.055 -250.58898437 7.37953125 -249.96875 6.68359375 C-222.46609216 -22.41241706 -181.55182795 -37.78007909 -142.79296875 -43.26953125 C-141.56835938 -43.45386719 -140.34375 -43.63820313 -139.08203125 -43.828125 C-89.63641249 -49.78019191 -38.16134822 -31.00943121 0 0 Z " fill="#E9BA5F" transform="translate(342.79296875,142.26953125)"/>
<path d="M0 0 C1.54412567 -0.01805191 1.54412567 -0.01805191 3.1194458 -0.03646851 C23.09703841 -0.23627227 42.20237981 2.32916117 61.3125 8.25 C62.45058105 8.59619385 63.58866211 8.9423877 64.76123047 9.29907227 C73.39576232 11.99697805 81.32282874 15.20028108 89.3125 19.4375 C90.74119909 20.15821272 92.17094295 20.87685698 93.6015625 21.59375 C102.059053 25.88454648 109.87470028 30.5055125 117.3125 36.4375 C118.23546875 37.1696875 119.1584375 37.901875 120.109375 38.65625 C153.13711901 65.29741368 173.38217977 101.05308918 182.3125 142.4375 C182.56692871 143.5605957 182.82135742 144.68369141 183.08349609 145.84082031 C185.17645212 155.56600953 185.78183617 164.95680679 185.70361328 174.89111328 C185.68755464 177.3042896 185.70355499 179.7157806 185.72265625 182.12890625 C185.75132815 203.64320918 181.31606453 225.4713885 173.3125 245.4375 C173.03954102 246.11893066 172.76658203 246.80036133 172.48535156 247.50244141 C153.98144226 293.00570125 116.96494171 328.51383592 71.94921875 347.58984375 C50.95945011 356.15011553 23.25350053 364.59826007 0.3125 361.4375 C-2.04296875 360.41796875 -2.04296875 360.41796875 -3.6875 358.4375 C-4.45649811 352.3367817 -3.15036617 348.29680203 -0.1875 342.9375 C0.55251269 341.53147589 1.29208368 340.12521924 2.03125 338.71875 C2.41152344 338.00847656 2.79179687 337.29820312 3.18359375 336.56640625 C4.95715791 333.22179564 6.63145424 329.82926687 8.3125 326.4375 C8.97610694 325.11044918 9.64017112 323.78362691 10.3046875 322.45703125 C11.66955706 319.72795923 13.02815923 316.99587547 14.3828125 314.26171875 C16.0411173 310.91645678 17.7166377 307.58030629 19.40283203 304.24902344 C20.25039075 302.56118509 21.07721399 300.86297832 21.90234375 299.1640625 C24.77111985 293.48738618 27.30519336 289.02177531 33.3125 286.4375 C35.05269224 285.98160299 36.80459427 285.56944052 38.5625 285.1875 C53.24559649 281.88979075 65.96957341 274.0673453 77.3125 264.4375 C78.1890625 263.74785156 79.065625 263.05820312 79.96875 262.34765625 C90.841727 253.48618 99.80454883 239.2159467 105.3125 226.4375 C105.65539062 225.68984375 105.99828125 224.9421875 106.3515625 224.171875 C116.4390175 200.91682607 118.31792369 171.4801047 110.3125 147.4375 C109.961875 146.33277344 109.61125 145.22804687 109.25 144.08984375 C104.08259957 129.32327934 95.87134695 116.84609023 85.3125 105.4375 C84.62285156 104.67824219 83.93320312 103.91898437 83.22265625 103.13671875 C71.722694 91.02530656 56.93290884 82.89960425 41.3125 77.4375 C40.50941406 77.13972656 39.70632813 76.84195313 38.87890625 76.53515625 C21.74088487 70.39479565 1.18580669 69.47061787 -16.625 72.9375 C-34.42478691 76.38785778 -34.42478691 76.38785778 -42.4453125 71.29296875 C-50.38836438 64.71988575 -56.21498803 55.50136532 -62.08984375 47.109375 C-63.91731259 44.50535534 -65.78809296 41.93973791 -67.69140625 39.390625 C-68.19099854 38.7200708 -68.69059082 38.0495166 -69.20532227 37.35864258 C-70.16904563 36.06886291 -71.13677423 34.78206294 -72.10913086 33.4987793 C-75.52406701 28.91268511 -78.18905268 24.98260523 -77.75 19.125 C-77.01540271 14.58867244 -75.61178238 11.38269638 -72.37109375 8.08984375 C-66.71992992 4.6103062 -59.92966094 4.39999454 -53.45556641 3.74511719 C-50.74717659 3.4441319 -48.07605533 3.03937292 -45.38671875 2.6015625 C-30.29986719 0.29912007 -15.23071917 0.08782365 0 0 Z " fill="#E9BA5F" transform="translate(453.6875,97.5625)"/>
<path d="M0 0 C11.01398544 6.77636886 19.54370394 20.74653753 23.4375 33 C23.97872242 36.07045459 24.35741186 39.15759527 24.75 42.25 C28.33491187 67.66144759 38.55634315 89.35794286 56.4375 108 C57.2625 108.86625 58.0875 109.7325 58.9375 110.625 C59.7625 111.40875 60.5875 112.1925 61.4375 113 C61.96472656 113.54527344 62.49195313 114.09054687 63.03515625 114.65234375 C82.98751125 134.04936482 114.19418558 145.73754391 141.89501953 145.40991211 C148.62134956 145.48109409 153.04050318 148.01559179 158.03955078 152.4074707 C160.53683002 155.02904694 161.41673907 156.6806592 161.65234375 160.3046875 C160.69070332 176.8449029 151.01976254 197.2207602 139.4375 209 C132.19575981 214.7884658 124.37211124 214.95374501 115.4375 214 C74.29515947 207.93609195 31.87082249 184.27760677 5.4375 152 C4.53534999 150.94514677 3.63298728 149.89047544 2.73046875 148.8359375 C-22.89527089 118.41818873 -40.68275042 72.98584068 -38.94140625 32.8515625 C-37.76201084 20.86306891 -31.11268812 9.51750724 -22.3046875 1.375 C-15.09491611 -4.31522316 -7.88834272 -3.91022841 0 0 Z " fill="#436CC5" transform="translate(296.5625,241)"/>
<path d="M0 0 C-2.31 0.33 -4.62 0.66 -7 1 C-7 1.66 -7 2.32 -7 3 C-8.62449243 4.70779973 -10.29220027 6.37550757 -12 8 C-13.28612676 9.05978933 -13.28612676 9.05978933 -13.09765625 11.50390625 C-13.08605469 12.51324219 -13.07445312 13.52257812 -13.0625 14.5625 C-13.05347656 15.57441406 -13.04445313 16.58632812 -13.03515625 17.62890625 C-13.02355469 18.41136719 -13.01195312 19.19382812 -13 20 C-12.34 20 -11.68 20 -11 20 C-11 21.32 -11 22.64 -11 24 C-10.01 24.33 -9.02 24.66 -8 25 C-7.3125 27.0625 -7.3125 27.0625 -7 29 C-6.34 29 -5.68 29 -5 29 C-4.7525 29.5775 -4.505 30.155 -4.25 30.75 C-3.0681388 33.13266887 -3.0681388 33.13266887 -0.875 35.0625 C1 37 1 37 1 40 C2.32 40.33 3.64 40.66 5 41 C4.67 41.99 4.34 42.98 4 44 C4.66 44 5.32 44 6 44 C6.9765625 45.79036458 7.953125 47.58072917 8.9296875 49.37109375 C9.91410024 51.16618315 9.91410024 51.16618315 12 52 C12.66666667 53.33333333 13.33333333 54.66666667 14 56 C15.37485532 57.54166642 15.37485532 57.54166642 17 59 C17.53625 59.66 18.0725 60.32 18.625 61 C22.54498239 64.3010378 27.08344535 65.95920903 32.234375 66.03125 C35.22334331 65.734473 38.1267632 65.21726516 41.04199219 64.49194336 C48.51276117 62.69579745 55.94577606 62.69548146 63.57885742 62.73925781 C65.82562726 62.75006313 68.07161243 62.73926565 70.31835938 62.7265625 C71.76041841 62.72788282 73.20247697 62.73044257 74.64453125 62.734375 C75.93721924 62.73663086 77.22990723 62.73888672 78.56176758 62.74121094 C81.82892621 62.98712361 84.07020866 63.58786652 87 65 C83.8985518 65.95592581 81.58041771 65.97462513 78.375 65.5625 C67.15828696 64.44381186 56.14960114 64.3418904 45.0625 66.5 C27.26271309 69.95035778 27.26271309 69.95035778 19.2421875 64.85546875 C11.29913562 58.28238575 5.47251197 49.06386532 -0.40234375 40.671875 C-2.22981259 38.06785534 -4.10059296 35.50223791 -6.00390625 32.953125 C-6.50349854 32.2825708 -7.00309082 31.6120166 -7.51782227 30.92114258 C-8.48154563 29.63136291 -9.44927423 28.34456294 -10.42163086 27.0612793 C-14.61526685 21.42942887 -16.70157239 17.34025871 -15.7421875 10.35546875 C-14.38545055 6.04961411 -11.46947515 2.81580592 -8 0 C-4.94261742 -1.09151415 -3.08552205 -0.99177494 0 0 Z " fill="#DEBD7A" transform="translate(392,104)"/>
<path d="M0 0 C-4.81378727 -0.88057084 -9.52035912 -2.13152634 -14.25 -3.375 C-15.05824219 -3.58382812 -15.86648438 -3.79265625 -16.69921875 -4.0078125 C-20.74827777 -5.07028559 -24.7233165 -6.21981522 -28.6796875 -7.58984375 C-53.01324826 -15.83904825 -92.50138085 -14.16861595 -116.1875 -4.375 C-119.95970447 -2.8461432 -122.95463883 -2.74716493 -127 -3 C-127 -2.34 -127 -1.68 -127 -1 C-133.96428571 1.27678571 -133.96428571 1.27678571 -138 0 C-121.92224262 -6.78325491 -105.23240397 -10.55935909 -88 -13 C-86.77539062 -13.18433594 -85.55078125 -13.36867188 -84.2890625 -13.55859375 C-60.47040493 -16.42578901 -19.73025533 -16.03627098 0 0 Z " fill="#DFBE7C" transform="translate(288,112)"/>
<path d="M0 0 C0.99 0.495 0.99 0.495 2 1 C-27.97552692 22.51067713 -71.77213833 43.26694983 -110 38 C-112.33984375 36.7421875 -112.33984375 36.7421875 -114 35 C-114.52799676 32.23857697 -114.18598981 29.83634455 -114 27 C-113.67 27 -113.34 27 -113 27 C-112.34 29.64 -111.68 32.28 -111 35 C-102.10635227 35.22080781 -93.41156161 34.99717108 -84.5625 34.0625 C-83.72807373 33.97564941 -82.89364746 33.88879883 -82.03393555 33.79931641 C-78.19870583 33.68711691 -78.19870583 33.68711691 -75 32 C-72.43953574 31.45660274 -69.88794313 30.96079673 -67.3125 30.5 C-66.60416016 30.36980469 -65.89582031 30.23960937 -65.16601562 30.10546875 C-61.11683627 29.36517557 -57.06225909 28.66531487 -53 28 C-53 27.34 -53 26.68 -53 26 C-51.948125 25.71125 -50.89625 25.4225 -49.8125 25.125 C-46.14539555 24.11839081 -46.14539555 24.11839081 -43.3125 22.875 C-41 22 -41 22 -37 22 C-37 21.34 -37 20.68 -37 20 C-35.10667466 19.18167278 -33.21022267 18.37057732 -31.3125 17.5625 C-29.72888672 16.88380859 -29.72888672 16.88380859 -28.11328125 16.19140625 C-25.38027471 15.14552545 -22.87957663 14.46479252 -20 14 C-20 13.34 -20 12.68 -20 12 C-17.525 11.505 -17.525 11.505 -15 11 C-15 10.34 -15 9.68 -15 9 C-14.34 9 -13.68 9 -13 9 C-13 8.34 -13 7.68 -13 7 C-10.09451118 4.95830515 -8.59857954 4 -5 4 C-5 3.34 -5 2.68 -5 2 C-2.625 0.9375 -2.625 0.9375 0 0 Z " fill="#DDBD79" transform="translate(564,421)"/>
<path d="M0 0 C1.01174286 -0.00999023 2.02348572 -0.01998047 3.06588745 -0.03027344 C23.2156102 -0.19370533 42.37276967 2.63996859 61.625 8.625 C63.3884375 9.14513672 63.3884375 9.14513672 65.1875 9.67578125 C71.44332647 11.56994681 71.44332647 11.56994681 73.75 12.5 C74.08 13.16 74.41 13.82 74.75 14.5 C71.22543449 14.04813263 68.06680888 13.29002927 64.75 12.0625 C59.56819581 10.24401335 54.32367325 9.6553748 48.88671875 9.02734375 C46.00770481 8.54332522 44.28900196 7.82239685 41.75 6.5 C39.42716642 6.08792592 39.42716642 6.08792592 37.0625 5.9375 C32.84964413 5.59964413 32.84964413 5.59964413 31.75 4.5 C20.2459838 2.15119192 8.49649911 2.30656293 -3.1875 2.3125 C-3.96213593 2.31168427 -4.73677185 2.31086853 -5.53488159 2.31002808 C-7.76162997 2.31029299 -9.98813592 2.31911921 -12.21484375 2.33203125 C-14.17345337 2.34327026 -14.17345337 2.34327026 -16.17163086 2.35473633 C-19.16285694 2.28786317 -19.16285694 2.28786317 -21.25 3.5 C-23.81585128 3.68644594 -26.36826277 3.82770354 -28.9375 3.9375 C-36.01721937 4.28009141 -42.88193865 5.05708579 -49.8828125 6.1953125 C-53.52223925 6.52463418 -56.66421452 6.14781366 -60.25 5.5 C-60.25 5.17 -60.25 4.84 -60.25 4.5 C-40.17271489 1.47280834 -20.30724766 0.06880169 0 0 Z " fill="#DEBC77" transform="translate(454.25,97.5)"/>
<path d="M0 0 C0.99 0.99 0.99 0.99 2 2 C-0.91706203 1.69088746 -3.8336109 1.37784575 -6.75 1.0625 C-7.575 0.97548828 -8.4 0.88847656 -9.25 0.79882812 C-10.04921875 0.71181641 -10.8484375 0.62480469 -11.671875 0.53515625 C-12.4050293 0.456604 -13.13818359 0.37805176 -13.89355469 0.29711914 C-16 0 -16 0 -17.83999634 -0.50949097 C-20.18110628 -1.04112691 -22.26676512 -1.13393299 -24.66650391 -1.14526367 C-26.05042831 -1.15483345 -26.05042831 -1.15483345 -27.46231079 -1.16459656 C-28.45701385 -1.16570938 -29.45171692 -1.1668222 -30.4765625 -1.16796875 C-32.03544693 -1.17296135 -32.03544693 -1.17296135 -33.62582397 -1.17805481 C-35.83322712 -1.18312036 -38.04063793 -1.18546325 -40.24804688 -1.18530273 C-43.56393844 -1.18746027 -46.8794811 -1.20553864 -50.1953125 -1.22460938 C-61.30744043 -1.25311272 -72.15756445 -0.93509173 -83.17333984 0.5690918 C-87.17879007 1.02013299 -90.97477167 1.0709279 -95 1 C-80.07765962 -13.92234038 -18.62818168 -7.39213559 0 0 Z " fill="#FFFCEB" transform="translate(498,100)"/>
<path d="M0 0 C0.928125 0.495 1.85625 0.99 2.8125 1.5 C10.42691905 4.67898211 18.2191531 3.03785847 26.0625 1.5 C51.69965157 -3.44621255 77.60513348 2.14016072 101 13 C101 13.33 101 13.66 101 14 C96.04230204 14.29162929 92.97193147 14.12940055 89 11 C89 10.34 89 9.68 89 9 C86.00312155 8.31650141 83.00355002 7.65329205 80 7 C78.86304688 6.74734375 77.72609375 6.4946875 76.5546875 6.234375 C63.81582132 3.52171456 51.73280489 2.83654381 38.75 3.3125 C37.72455078 3.34698242 36.69910156 3.38146484 35.64257812 3.41699219 C34.68287109 3.46114258 33.72316406 3.50529297 32.734375 3.55078125 C31.43838379 3.60745972 31.43838379 3.60745972 30.11621094 3.6652832 C27.78688188 3.8211474 27.78688188 3.8211474 26 6 C23.92456055 6.16699219 23.92456055 6.16699219 21.38671875 6.046875 C20.46826172 6.00433594 19.54980469 5.96179688 18.60351562 5.91796875 C17.64123047 5.86253906 16.67894531 5.80710938 15.6875 5.75 C14.73681641 5.71003906 13.78613281 5.67007813 12.80664062 5.62890625 C8.18578194 5.38995199 4.18557939 5.17757222 0 3 C0 2.01 0 1.02 0 0 Z " fill="#FCF2D3" transform="translate(411,168)"/>
<path d="M0 0 C8.4390473 1.22828599 16.80769227 2.68340203 25.17578125 4.31640625 C34.22532689 5.9340472 43.00028981 6.2385511 52.1875 6.25 C53.24872574 6.25250763 53.24872574 6.25250763 54.33139038 6.25506592 C66.4262177 6.25677353 78.11371147 5.28320986 90 3 C91.18078125 2.77570313 92.3615625 2.55140625 93.578125 2.3203125 C95.36974272 1.97793529 97.15876157 1.62076104 98.94140625 1.234375 C101.21777768 0.97520558 102.82982288 1.31105488 105 2 C100.43373925 5.34983883 95.96291244 5.88880353 90.5 6.625 C88.82280795 6.86643347 87.1457212 7.10859974 85.46875 7.3515625 C84.36176758 7.50359131 84.36176758 7.50359131 83.23242188 7.65869141 C80.99286702 7.96933764 80.99286702 7.96933764 78.79736328 8.52783203 C74.78898141 9.20440827 70.83213604 9.18295459 66.7734375 9.203125 C65.8711441 9.20882507 64.96885071 9.21452515 64.03921509 9.22039795 C62.12446252 9.22983439 60.20969381 9.23637654 58.29492188 9.24023438 C55.43328237 9.24980508 52.57240443 9.28078301 49.7109375 9.3125 C37.51993501 9.38061058 25.97112402 8.30020438 14 6 C14 5.34 14 4.68 14 4 C13.07316406 3.87882812 12.14632812 3.75765625 11.19140625 3.6328125 C9.39509766 3.38144531 9.39509766 3.38144531 7.5625 3.125 C6.36753906 2.96257812 5.17257813 2.80015625 3.94140625 2.6328125 C2.97074219 2.42398437 2.00007812 2.21515625 1 2 C0.67 1.34 0.34 0.68 0 0 Z " fill="#FEF8DD" transform="translate(171,451)"/>
<path d="M0 0 C2.37587624 0.11486425 4.75015171 0.24158156 7.125 0.375 C8.12273437 0.42140625 8.12273437 0.42140625 9.140625 0.46875 C13.43077924 0.72111201 16.96604563 1.58382453 21 3 C32.05744253 5.20062124 43.27259693 5.18845582 54.5 5.1875 C55.19736267 5.18840637 55.89472534 5.18931274 56.61322021 5.19024658 C69.92424418 5.23620032 69.92424418 5.23620032 83 3 C83.99 4.485 83.99 4.485 85 6 C56.60984485 11.22976542 27.7075989 8.07046241 0 1 C0 0.67 0 0.34 0 0 Z " fill="#E1C07F" transform="translate(171,450)"/>
<path d="M0 0 C7.44230094 0.54701632 14.68160944 1.54198409 22 3 C22 3.99 22 4.98 22 6 C27.82086707 5.8820735 33.6415519 5.75784958 39.4621582 5.62768555 C41.44389146 5.58426856 43.42566378 5.54259863 45.4074707 5.50268555 C48.2496317 5.44514617 51.09159483 5.38140555 53.93359375 5.31640625 C55.27108925 5.29133751 55.27108925 5.29133751 56.63560486 5.26576233 C60.63948395 5.563413 60.63948395 5.563413 64 4 C69.04490849 3.15918192 74.03044967 2.5091349 79 4 C79 4.66 79 5.32 79 6 C78.32195312 5.97679687 77.64390625 5.95359375 76.9453125 5.9296875 C76.01460938 5.91164063 75.08390625 5.89359375 74.125 5.875 C73.22007812 5.85179687 72.31515625 5.82859375 71.3828125 5.8046875 C68.57781746 5.96663872 66.29671213 6.35607592 63.5859375 6.984375 C56.61221607 8.4495741 49.59272003 8.39266362 42.5 8.375 C41.44051147 8.37567978 41.44051147 8.37567978 40.35961914 8.37637329 C25.93476577 8.34919899 13.46638635 6.19885933 0 1 C0 0.67 0 0.34 0 0 Z " fill="#FEF9DF" transform="translate(176,377)"/>
<path d="M0 0 C9.97161783 12.01968374 8.49205014 34.55314657 8.5 49.5 C8.50421967 50.28630798 8.50843933 51.07261597 8.51278687 51.88275146 C8.54026758 63.52151941 7.21859909 74.58133861 5 86 C4.67 86 4.34 86 4 86 C4.10393066 84.41312378 4.10393066 84.41312378 4.20996094 82.79418945 C4.89497018 71.80663801 5.21579592 60.84761561 5.24023438 49.83911133 C5.25005806 47.17173398 5.2812961 44.50509286 5.3125 41.83789062 C5.37205674 32.04106149 4.69874278 23.4641552 2 14 C1.59008965 12.1488945 1.19193786 10.29509117 0.8125 8.4375 C0.65394531 7.67308594 0.49539063 6.90867188 0.33203125 6.12109375 C0 4 0 4 0 0 Z " fill="#E0BE7B" transform="translate(631,226)"/>
<path d="M0 0 C-0.71542969 0.49886719 -1.43085938 0.99773437 -2.16796875 1.51171875 C-20.91316026 15.0189266 -33.57732467 31.33609554 -42 53 C-42.33 53 -42.66 53 -43 53 C-43 51.02 -43 49.04 -43 47 C-42.34 47 -41.68 47 -41 47 C-40.87625 46.319375 -40.7525 45.63875 -40.625 44.9375 C-40.41875 43.968125 -40.2125 42.99875 -40 42 C-39.773125 40.88625 -39.54625 39.7725 -39.3125 38.625 C-37.90705028 34.74328173 -36.2772714 32.74220478 -33.5234375 29.7734375 C-31.97899667 27.97554997 -30.87865536 26.20410198 -29.75 24.125 C-28 21 -28 21 -26 20 C-24.95191959 18.02477154 -23.9479589 16.02518491 -23 14 C-22.01 14 -21.02 14 -20 14 C-20 13.01 -20 12.02 -20 11 C-18.68 11 -17.36 11 -16 11 C-16 10.01 -16 9.02 -16 8 C-11.77142857 4 -11.77142857 4 -8 4 C-8 3.01 -8 2.02 -8 1 C-4.85571151 -0.9090323 -3.47925125 -1.04523725 0 0 Z " fill="#DFBC78" transform="translate(160,187)"/>
<path d="M0 0 C1.86108398 0.07250977 1.86108398 0.07250977 3.75976562 0.14648438 C5.03658203 0.20255859 6.31339844 0.25863281 7.62890625 0.31640625 C8.93279297 0.36861328 10.23667969 0.42082031 11.58007812 0.47460938 C14.78413072 0.6037104 17.98782571 0.7386522 21.19140625 0.87890625 C21.19140625 1.20890625 21.19140625 1.53890625 21.19140625 1.87890625 C20.26581909 1.90078003 20.26581909 1.90078003 19.3215332 1.9230957 C-4.95682628 2.55804402 -28.15715266 5.53792564 -51.26953125 13.14453125 C-53.80859375 13.87890625 -53.80859375 13.87890625 -56.80859375 13.87890625 C-54.31523248 10.13886435 -52.86839792 10.0236377 -48.62109375 8.81640625 C-47.44546875 8.47738281 -46.26984375 8.13835937 -45.05859375 7.7890625 C-43.98609375 7.48871094 -42.91359375 7.18835938 -41.80859375 6.87890625 C-40.59171875 6.50765625 -39.37484375 6.13640625 -38.12109375 5.75390625 C-31.04091672 3.88367081 -24.04463428 2.68322136 -16.7421875 2.125 C-14.804492 2.07886223 -14.804492 2.07886223 -13.80859375 0.87890625 C-9.12716192 0.02816741 -4.7459373 -0.19683611 0 0 Z " fill="#FEF7DF" transform="translate(210.80859375,96.12109375)"/>
<path d="M0 0 C2.96175123 0.61277612 4.38058783 1.25372522 7 3 C7 3.66 7 4.32 7 5 C7.66 5 8.32 5 9 5 C9 5.66 9 6.32 9 7 C9.99 7 10.98 7 12 7 C12 7.66 12 8.32 12 9 C12.928125 9.433125 12.928125 9.433125 13.875 9.875 C16 11 16 11 18 13 C20.32275177 13.40047444 22.65739357 13.7397104 25 14 C24.67 15.32 24.34 16.64 24 18 C25.299375 18.0928125 25.299375 18.0928125 26.625 18.1875 C30.17445144 19.04199757 31.52433079 20.30177395 34.2109375 22.62963867 C37.55466477 25.1908206 41.37318707 26.8186735 45.1875 28.5625 C46.02450439 28.95236084 46.86150879 29.34222168 47.72387695 29.74389648 C53.70174403 32.49451262 59.73024706 34.98522546 66 37 C66 37.66 66 38.32 66 39 C58.27883012 37.17496249 51.4272422 34.61797375 44.375 31 C43.42496094 30.51724609 42.47492188 30.03449219 41.49609375 29.53710938 C8.20819992 12.31229988 8.20819992 12.31229988 0 0 Z " fill="#516EAF" transform="translate(318,408)"/>
<path d="M0 0 C0.710354 0.0616333 1.42070801 0.1232666 2.15258789 0.18676758 C7.33408651 0.78542183 10.69232144 2.49039342 15 5.25 C12.18740275 6.65629862 10.84840211 5.77778783 7.875 4.875 C-1.59681362 2.00394035 -11.04793287 1.97851203 -20.875 1.9375 C-21.56098267 1.93355225 -22.24696533 1.92960449 -22.95373535 1.92553711 C-32.91323609 1.89878146 -42.23212246 2.66861608 -51.859375 5.375 C-55 6.25 -55 6.25 -58 6.25 C-57.67 5.26 -57.34 4.27 -57 3.25 C-54.4453125 2.3359375 -54.4453125 2.3359375 -51.125 1.625 C-50.05507812 1.38523438 -48.98515625 1.14546875 -47.8828125 0.8984375 C-32.20343703 -1.72004975 -15.79069955 -1.55654756 0 0 Z " fill="#DFBD76" transform="translate(242,168.75)"/>
<path d="M0 0 C-3.99637789 1.6754574 -7.99703321 3.34034828 -12 5 C-13.40958984 5.5878125 -13.40958984 5.5878125 -14.84765625 6.1875 C-15.70230469 6.538125 -16.55695313 6.88875 -17.4375 7.25 C-18.19933594 7.56453125 -18.96117187 7.8790625 -19.74609375 8.203125 C-22.1447175 9.05116529 -24.49727944 9.55860308 -27 10 C-27 10.66 -27 11.32 -27 12 C-27.59167969 12.32613281 -28.18335938 12.65226563 -28.79296875 12.98828125 C-30.42318666 13.88982101 -32.05069722 14.79626987 -33.67578125 15.70703125 C-35.39496853 16.66341947 -37.13081847 17.58999224 -38.875 18.5 C-41.17657043 19.90135924 -41.17657043 19.90135924 -42.4375 22.5 C-44.46368726 25.74189962 -46.48999987 26.61062495 -50 28 C-50.99 28 -51.98 28 -53 28 C-43.11033844 17.19036992 -16.43909502 -5.28267548 0 0 Z " fill="#FDF5DA" transform="translate(194,174)"/>
<path d="M0 0 C4.15157053 3.34804075 4.39689909 5.83056359 5 11 C5.474375 12.175625 5.94875 13.35125 6.4375 14.5625 C11.9345914 28.68247987 12.17892932 49.48855312 8 64 C6.84859684 66.56648643 5.59195536 68.66513213 4 71 C3.34 71 2.68 71 2 71 C4 65 4 65 4.765625 62.80859375 C11.56625289 43.10677471 5.6070793 23.2320938 0.41137695 3.77734375 C0 2 0 2 0 0 Z " fill="#FEF7DD" transform="translate(401,230)"/>
<path d="M0 0 C0.66 0 1.32 0 2 0 C1.77213542 2.96223958 1.54427083 5.92447917 1.31640625 8.88671875 C1.24655518 9.81460205 1.24655518 9.81460205 1.17529297 10.76123047 C1.04155932 12.46922153 0.89819278 14.17646115 0.75048828 15.88330078 C0.09176536 23.76296103 -0.22715776 31.59324235 -0.25 39.5 C-0.25394775 40.70527344 -0.25789551 41.91054688 -0.26196289 43.15234375 C-0.20660324 51.78159987 0.52582366 60.10708075 2.02050781 68.60351562 C2.1594043 69.39435547 2.29830078 70.18519531 2.44140625 71 C2.57232666 71.680625 2.70324707 72.36125 2.83813477 73.0625 C3.02130075 75.2549665 2.63962748 76.90741681 2 79 C-0.11248018 74.77503965 -0.41787082 70.74529238 -0.75390625 66.109375 C-0.77703502 64.01616395 -0.77703502 64.01616395 -2 63 C-2.10369726 61.46782942 -2.13851671 59.93092453 -2.14526367 58.39526367 C-2.15164352 57.41301315 -2.15802338 56.43076263 -2.16459656 55.41874695 C-2.16570938 54.34599014 -2.1668222 53.27323334 -2.16796875 52.16796875 C-2.17296135 50.51478386 -2.17296135 50.51478386 -2.17805481 48.82820129 C-2.18313318 46.48353494 -2.18546286 44.13886131 -2.18530273 41.79418945 C-2.18746745 38.24092237 -2.20555266 34.68797679 -2.22460938 31.13476562 C-2.22754763 28.85416772 -2.22952953 26.57356835 -2.23046875 24.29296875 C-2.23765427 23.24247849 -2.24483978 22.19198822 -2.25224304 21.10966492 C-2.23042698 13.89876087 -1.38522197 7.07397976 0 0 Z " fill="#FEF7DD" transform="translate(43,240)"/>
<path d="M0 0 C0 3 0 3 -2.125 5.4375 C-5.7183455 8.64026447 -9.44599293 11.16878691 -13.6875 13.4375 C-16.1497487 14.84608191 -16.1497487 14.84608191 -17.3125 17.375 C-19.43978772 20.68411422 -21.85366439 21.93112086 -25.2578125 23.7890625 C-27.32095055 24.96533747 -27.32095055 24.96533747 -28 28 C-28.721875 28.53625 -29.44375 29.0725 -30.1875 29.625 C-34.01803388 32.85967305 -36.36977772 36.7699518 -39 41 C-39.99 40.67 -40.98 40.34 -42 40 C-29.49021456 24.44409659 -16.71162433 10.9993839 0 0 Z " fill="#E0BD79" transform="translate(118,129)"/>
<path d="M0 0 C2.92090003 1.30936898 4.75619462 2.75619462 7 5 C7.99 5.33 8.98 5.66 10 6 C10 6.66 10 7.32 10 8 C10.66 8 11.32 8 12 8 C13.78305524 10.63892176 14.99059621 12.97178863 16 16 C16.66 16 17.32 16 18 16 C20.91785426 19.82475491 23.42232631 23.9404053 26 28 C26.81597656 29.27037109 26.81597656 29.27037109 27.6484375 30.56640625 C33.36934268 39.75315081 38.62729346 49.00515703 39 60 C37.39153338 57.58730007 36.40465273 55.72508232 35.37109375 53.078125 C27.40652124 33.13855405 17.0930109 17.49556913 1.58203125 2.609375 C0 1 0 1 0 0 Z " fill="#DDBC78" transform="translate(297,196)"/>
<path d="M0 0 C0.33 0 0.66 0 1 0 C1.65001678 2.99914719 2.29511037 5.99921801 2.9375 9 C3.21110352 10.25876953 3.21110352 10.25876953 3.49023438 11.54296875 C6.30765534 24.75923438 7.30405716 36.92841899 3 50 C1.39453125 52.3828125 1.39453125 52.3828125 0 54 C0.28875 52.783125 0.5775 51.56625 0.875 50.3125 C1.76289634 46.26549422 2.54586029 42.20809584 3.25 38.125 C3.44078125 37.03445313 3.6315625 35.94390625 3.828125 34.8203125 C4.29777538 31.79202015 4.29777538 31.79202015 2 29 C1.74795154 26.37354049 1.5811135 23.81891747 1.5 21.1875 C1.34135134 16.12474121 0.74232535 11.78965932 -1 7 C-1.1875 3.6875 -1.1875 3.6875 -1 1 C-0.67 0.67 -0.34 0.34 0 0 Z " fill="#E0BE78" transform="translate(404,243)"/>
<path d="M0 0 C3.54285132 2.36190088 3.7771636 3.8931688 4.68701172 7.91601562 C4.85217285 8.74810547 5.01733398 9.58019531 5.1875 10.4375 C5.36039551 11.30697266 5.53329102 12.17644531 5.71142578 13.07226562 C7.06445256 20.71320109 7.36909951 28.25051605 7.375 36 C7.37653076 37.10786865 7.37806152 38.2157373 7.37963867 39.35717773 C7.28269611 46.60620652 6.92150476 53.97416699 5 61 C4.01 61.495 4.01 61.495 3 62 C3.06856201 61.22688477 3.13712402 60.45376953 3.20776367 59.65722656 C4.69573037 41.83359688 6.02757811 23.31586659 0.875 5.9921875 C0 3 0 3 0 0 Z " fill="#DEBB76" transform="translate(564,242)"/>
<path d="M0 0 C3.19178109 1.43450835 5.54592382 3.21842624 8.1875 5.5 C17.82275377 13.32239862 29.18053122 20.10857784 41 24 C39.3125 25.125 39.3125 25.125 37 26 C34.609375 25.30859375 34.609375 25.30859375 32 24 C30.58460938 23.30583984 30.58460938 23.30583984 29.140625 22.59765625 C28.18671875 22.09105469 27.2328125 21.58445312 26.25 21.0625 C25.28578125 20.55847656 24.3215625 20.05445313 23.328125 19.53515625 C21 18 21 18 20 15 C18.02416285 14.26480478 16.01822402 13.60927518 14 13 C8.18292683 10.36585366 8.18292683 10.36585366 7 8 C6.01 7.67 5.02 7.34 4 7 C0 2.54285714 0 2.54285714 0 0 Z " fill="#516EB2" transform="translate(356,354)"/>
<path d="M0 0 C0.66 0 1.32 0 2 0 C0.45386541 5.4375295 -2.05388105 10.02081998 -4.875 14.875 C-5.59006714 16.11117065 -5.59006714 16.11117065 -6.31958008 17.37231445 C-11.25826214 25.72792664 -16.98871905 33.39410351 -23 41 C-23.33 39.68 -23.66 38.36 -24 37 C-23.34 37 -22.68 37 -22 37 C-21.731875 36.236875 -21.46375 35.47375 -21.1875 34.6875 C-20.03396359 32.07686496 -19.01370135 30.92614911 -17 29 C-16.67 28.01 -16.34 27.02 -16 26 C-15.34 26 -14.68 26 -14 26 C-13.896875 25.4225 -13.79375 24.845 -13.6875 24.25 C-13 22 -13 22 -11.5625 20.1875 C-9.75486467 17.92191091 -9.75486467 17.92191091 -9 14.375 C-8 11 -8 11 -5 9 C-3.0982713 6.10937238 -1.50012012 3.1156341 0 0 Z " fill="#DFBC77" transform="translate(621,351)"/>
<path d="M0 0 C3.77449123 3.83882914 4.1108125 8.53707844 5 13.625 C6.29574593 20.55779976 7.65076473 27.33211067 10 34 C10.350625 35.010625 10.70125 36.02125 11.0625 37.0625 C11.84146359 39.17503935 11.84146359 39.17503935 14 40 C16 43 16 43 15.625 45.1875 C15.41875 45.785625 15.2125 46.38375 15 47 C5.54917857 33.03614586 -0.3568543 17.13849737 0 0 Z " fill="#DEBB75" transform="translate(336,256)"/>
<path d="M0 0 C3.42938578 3.14360363 5.68399647 5.96789016 7.90234375 10.1171875 C9.11846532 12.20320386 10.51259018 14.03629948 12 15.9375 C19 25.0517132 19 25.0517132 19 30 C19.66 30 20.32 30 21 30 C23.66590937 34.55426184 24.31563182 37.73946963 24 43 C21.65472382 40.65472382 21.04756532 38.78290846 19.875 35.6875 C15.53937155 25.08929711 9.3715196 16.03904519 1.98046875 7.33984375 C0.23510384 5.27776568 -1.40471076 3.17905439 -3 1 C-2.01 0.67 -1.02 0.34 0 0 Z " fill="#DFBB77" transform="translate(540,199)"/>
<path d="M0 0 C4.62 0 9.24 0 14 0 C14 0.66 14 1.32 14 2 C15.28583984 1.94779297 15.28583984 1.94779297 16.59765625 1.89453125 C23.2720651 1.73651255 27.93778373 1.96889186 34 5 C36.24678547 5.59402422 38.50065718 6.06263414 40.77734375 6.52734375 C43.90430358 7.19230357 46.93704051 8.08762909 50 9 C49.34 9.66 48.68 10.32 48 11 C43.41681975 10.64081659 39.06105183 9.2039473 34.66259766 7.93017578 C23.19025991 4.61648075 11.8418704 2.4641792 0 1 C0 0.67 0 0.34 0 0 Z " fill="#FDF6D9" transform="translate(236,98)"/>
<path d="M0 0 C0.928125 0.495 1.85625 0.99 2.8125 1.5 C8.46959061 3.9525628 15.19479258 3.93506914 21 2 C23.46340043 1.76635195 25.90626969 1.5786117 28.375 1.4375 C29.43170898 1.37381226 29.43170898 1.37381226 30.50976562 1.30883789 C37.00782957 0.94547855 43.49278088 0.89971751 50 1 C50.495 1.99 50.495 1.99 51 3 C50.31373535 3.01981934 49.6274707 3.03963867 48.92041016 3.06005859 C45.82154221 3.15510945 42.72336706 3.26486847 39.625 3.375 C38.54476562 3.4059375 37.46453125 3.436875 36.3515625 3.46875 C35.3203125 3.50742188 34.2890625 3.54609375 33.2265625 3.5859375 C31.79691162 3.63306885 31.79691162 3.63306885 30.33837891 3.68115234 C27.81104824 3.78555796 27.81104824 3.78555796 26 6 C23.92456055 6.16699219 23.92456055 6.16699219 21.38671875 6.046875 C20.46826172 6.00433594 19.54980469 5.96179688 18.60351562 5.91796875 C17.64123047 5.86253906 16.67894531 5.80710938 15.6875 5.75 C14.73681641 5.71003906 13.78613281 5.67007813 12.80664062 5.62890625 C8.18578194 5.38995199 4.18557939 5.17757222 0 3 C0 2.01 0 1.02 0 0 Z " fill="#FEFDED" transform="translate(411,168)"/>
<path d="M0 0 C34.03278689 13.04918033 34.03278689 13.04918033 42 25 C40.0625 24.6875 40.0625 24.6875 38 24 C37.505 22.515 37.505 22.515 37 21 C35.02 21 33.04 21 31 21 C30.7525 20.39027344 30.505 19.78054687 30.25 19.15234375 C28.76859568 16.60155069 27.59973162 15.90414721 25 14.5625 C24.19433594 14.14097656 23.38867188 13.71945313 22.55859375 13.28515625 C21.71425781 12.86105469 20.86992188 12.43695313 20 12 C18.77990234 11.37931641 18.77990234 11.37931641 17.53515625 10.74609375 C15.03004433 9.48364398 12.51590914 8.24077461 10 7 C8.12448714 6.06352641 6.24947094 5.12605738 4.375 4.1875 C3.53710938 3.76855469 2.69921875 3.34960938 1.8359375 2.91796875 C1.23007812 2.61503906 0.62421875 2.31210938 0 2 C0 1.34 0 0.68 0 0 Z " fill="#DEBC77" transform="translate(531,112)"/>
<path d="M0 0 C3.16115776 1.36983503 3.9927092 1.9890638 6 5 C6 5.99 6 6.98 6 8 C6.66 8 7.32 8 8 8 C9.5094588 11.09965403 11.00590667 14.20541403 12.5 17.3125 C12.92925781 18.19357422 13.35851562 19.07464844 13.80078125 19.98242188 C14.20683594 20.82998047 14.61289062 21.67753906 15.03125 22.55078125 C15.40830078 23.33106689 15.78535156 24.11135254 16.17382812 24.9152832 C17 27 17 27 17 30 C17.66 30 18.32 30 19 30 C19.53341184 31.57914015 20.05125763 33.16354387 20.5625 34.75 C20.85253906 35.63171875 21.14257812 36.5134375 21.44140625 37.421875 C22.02820739 40.13018796 21.75639869 41.39972846 21 44 C20.74420166 43.35675781 20.48840332 42.71351563 20.22485352 42.05078125 C14.92758424 28.81527841 9.28708875 16.24984747 2 4 C1.3162955 2.67532254 0.63987204 1.34639741 0 0 Z " fill="#FEF7DC" transform="translate(379,184)"/>
<path d="M0 0 C6.49202841 -0.07662893 12.98393838 -0.12884067 19.47631836 -0.16479492 C21.68078978 -0.17979791 23.88523178 -0.20020687 26.08959961 -0.22631836 C29.2746511 -0.26307727 32.4593049 -0.27981175 35.64453125 -0.29296875 C37.10147148 -0.31619453 37.10147148 -0.31619453 38.58784485 -0.33988953 C45.36812199 -0.3415237 51.63338642 0.56805092 58 3 C58.66 3.66 59.32 4.32 60 5 C57.08293797 4.69088746 54.1663891 4.37784575 51.25 4.0625 C50.425 3.97548828 49.6 3.88847656 48.75 3.79882812 C47.95078125 3.71181641 47.1515625 3.62480469 46.328125 3.53515625 C45.5949707 3.456604 44.86181641 3.37805176 44.10644531 3.29711914 C42 3 42 3 40.11474609 2.4942627 C36.56257327 1.66404174 32.92932445 1.75848938 29.296875 1.68359375 C28.04019012 1.6524221 28.04019012 1.6524221 26.75811768 1.62062073 C24.08882644 1.5553745 21.41943902 1.49635642 18.75 1.4375 C16.93749016 1.39429106 15.12498995 1.35067601 13.3125 1.30664062 C8.87509791 1.19971871 4.43759932 1.09838134 0 1 C0 0.67 0 0.34 0 0 Z " fill="#F9ECCA" transform="translate(440,97)"/>
<path d="M0 0 C4.4778371 1.24962896 7.64274309 2.74148594 11 6 C11 6.99 11 7.98 11 9 C11.99 9 12.98 9 14 9 C15.3540932 10.98600337 16.68457624 12.98817543 18 15 C19.65191491 16.35156675 21.31522656 17.68962066 23 19 C23 19.66 23 20.32 23 21 C23.66 21 24.32 21 25 21 C28.22265625 26.2734375 28.22265625 26.2734375 29 28 C28.67 28.66 28.34 29.32 28 30 C27.49210938 29.35933594 26.98421875 28.71867187 26.4609375 28.05859375 C24.31692166 25.36452141 22.16140293 22.68013963 20 20 C19.21496094 19.02160156 19.21496094 19.02160156 18.4140625 18.0234375 C13.72336507 12.34795277 8.17325958 7.78135456 2.5 3.125 C1.675 2.42375 0.85 1.7225 0 1 C0 0.67 0 0.34 0 0 Z " fill="#FDF3D6" transform="translate(576,138)"/>
<path d="M0 0 C10.13283162 6.9482274 16.80700026 16.21360579 24 26 C23.67 26.66 23.34 27.32 23 28 C22.34 26.68 21.68 25.36 21 24 C20.34 24 19.68 24 19 24 C18.67 23.34 18.34 22.68 18 22 C15.98330173 20.86649466 15.98330173 20.86649466 14 20 C14 18.68 14 17.36 14 16 C13.34 16 12.68 16 12 16 C11.67 14.68 11.34 13.36 11 12 C10.34 12 9.68 12 9 12 C7.28891311 10.37897032 5.62746694 8.70496537 4 7 C3.236875 6.29875 2.47375 5.5975 1.6875 4.875 C0 3 0 3 0 0 Z " fill="#DEBA76" transform="translate(583,145)"/>
<path d="M0 0 C0.99 0.33 1.98 0.66 3 1 C-2.27420356 4.90205304 -7.75484369 7.99077787 -13.6875 10.75 C-14.6312146 11.19001343 -14.6312146 11.19001343 -15.59399414 11.63891602 C-21.50303389 14.33177095 -26.45224592 16.31179781 -33 16 C-32.01 15.67 -31.02 15.34 -30 15 C-30 14.34 -30 13.68 -30 13 C-27.5424552 12.33030409 -25.08405076 11.6641232 -22.625 11 C-21.92632812 10.80921875 -21.22765625 10.6184375 -20.5078125 10.421875 C-15.2265625 9 -15.2265625 9 -13 9 C-13 8.34 -13 7.68 -13 7 C-12.45730469 6.81824219 -11.91460937 6.63648438 -11.35546875 6.44921875 C-10.64003906 6.19785156 -9.92460937 5.94648438 -9.1875 5.6875 C-8.47980469 5.44386719 -7.77210938 5.20023437 -7.04296875 4.94921875 C-4.84109336 3.92616766 -3.64490079 2.75801718 -2 1 C-1.34 0.67 -0.68 0.34 0 0 Z " fill="#FEF8DE" transform="translate(520,368)"/>
<path d="M0 0 C0.33 0.66 0.66 1.32 1 2 C-0.26648771 3.9403434 -1.53835462 5.87717647 -2.8125 7.8125 C-3.52019531 8.89144531 -4.22789062 9.97039062 -4.95703125 11.08203125 C-6.54822706 13.35473348 -8.01875379 15.10667892 -10 17 C-10.433125 17.78375 -10.86625 18.5675 -11.3125 19.375 C-13.41894429 22.65169111 -15.93249526 24.62111878 -19 27 C-19.7425 27.598125 -20.485 28.19625 -21.25 28.8125 C-23 30 -23 30 -25 30 C-25 30.66 -25 31.32 -25 32 C-25.99 31.67 -26.98 31.34 -28 31 C-27.28714844 30.443125 -26.57429687 29.88625 -25.83984375 29.3125 C-15.13299309 20.78160419 -7.76956054 11.13063803 0 0 Z " fill="#DFBF83" transform="translate(553,336)"/>
<path d="M0 0 C0.33 0 0.66 0 1 0 C3.79145757 14.90548835 5.87260666 40.69109001 -3 54 C-3.2920918 49.0344394 -2.82503404 45.08061038 -1.5 40.28125 C0.46037021 32.04607161 0.33362865 24.09219487 0.1875 15.6875 C0.17240675 14.1569144 0.15872665 12.62631419 0.14648438 11.09570312 C0.1138903 7.3968247 0.06237218 3.69851055 0 0 Z " fill="#FDF3D3" transform="translate(567,256)"/>
<path d="M0 0 C2.97 0.495 2.97 0.495 6 1 C6.66 2.98 7.32 4.96 8 7 C8.99 7 9.98 7 11 7 C11.061875 7.61875 11.12375 8.2375 11.1875 8.875 C11.455625 9.57625 11.72375 10.2775 12 11 C13.2065625 11.433125 13.2065625 11.433125 14.4375 11.875 C17 13 17 13 18.3125 16.125 C18.6528125 17.548125 18.6528125 17.548125 19 19 C19.99 19 20.98 19 22 19 C22.33 21.31 22.66 23.62 23 26 C20.02457133 23.13131316 17.43598559 20.11639505 14.875 16.875 C10.82067595 11.85600317 6.51065536 7.37557915 1.87109375 2.8984375 C0 1 0 1 0 0 Z " fill="#FEF8DD" transform="translate(350,149)"/>
<path d="M0 0 C0.99 0.33 1.98 0.66 3 1 C2.34 1.33 1.68 1.66 1 2 C1 2.66 1 3.32 1 4 C0.278125 4.2475 -0.44375 4.495 -1.1875 4.75 C-4.26496798 6.11776355 -6.38351695 7.89405022 -9 10 C-14.26558007 13.13427385 -22.10148699 16.70407927 -28.3359375 15.578125 C-28.88507813 15.38734375 -29.43421875 15.1965625 -30 15 C-28.56720703 14.45472656 -28.56720703 14.45472656 -27.10546875 13.8984375 C-13.78461123 8.89116228 -13.78461123 8.89116228 -1.88671875 1.26171875 C-1.26410156 0.84535156 -0.64148438 0.42898438 0 0 Z " fill="#E0BD78" transform="translate(523,368)"/>
<path d="M0 0 C6.48351705 3.25499019 12.53965911 6.91581063 18.4375 11.125 C19.02805176 11.54442871 19.61860352 11.96385742 20.22705078 12.39599609 C23.42266034 14.71201298 26.29983712 17.12071084 29 20 C27.68 20 26.36 20 25 20 C25 19.34 25 18.68 25 18 C24.360625 17.87625 23.72125 17.7525 23.0625 17.625 C22.0415625 17.315625 22.0415625 17.315625 21 17 C20.67 16.34 20.34 15.68 20 15 C18.02111039 14.27306096 16.02045442 13.60183749 14 13 C14 12.34 14 11.68 14 11 C12.68 11.33 11.36 11.66 10 12 C9.62875 11.071875 9.2575 10.14375 8.875 9.1875 C6.66893996 5.43719794 4.86964819 4.76657852 1 3 C0.67 2.01 0.34 1.02 0 0 Z " fill="#E0BA71" transform="translate(315,124)"/>
<path d="M0 0 C0.66 0 1.32 0 2 0 C0.52356643 4.87601652 -1.49924971 9.23591905 -3.8125 13.75 C-4.16634766 14.44867188 -4.52019531 15.14734375 -4.88476562 15.8671875 C-5.5917536 17.26313461 -6.30021666 18.65833578 -7.01025391 20.05273438 C-8.35337893 22.6952517 -9.67737648 25.34717345 -11 28 C-11.66666667 29.33333333 -12.33333333 30.66666667 -13 32 C-13.6875 30.3125 -13.6875 30.3125 -14 28 C-12.7109375 25.64453125 -12.7109375 25.64453125 -11 23 C-10.17059034 20.91042275 -9.38065835 18.80486485 -8.625 16.6875 C-6.61122782 11.30523618 -4.2261572 6.72756113 -1 2 C-0.67 1.34 -0.34 0.68 0 0 Z " fill="#FEF8DE" transform="translate(464,416)"/>
<path d="M0 0 C0.99 0.33 1.98 0.66 3 1 C-1.17023573 5.83747344 -5.16360434 7.78977683 -11.42578125 8.25390625 C-22.11387977 8.42038754 -22.11387977 8.42038754 -26 6 C-24.58847656 5.92652344 -24.58847656 5.92652344 -23.1484375 5.8515625 C-21.28058594 5.73941406 -21.28058594 5.73941406 -19.375 5.625 C-18.14523437 5.55539062 -16.91546875 5.48578125 -15.6484375 5.4140625 C-12.00805166 5.13027187 -12.00805166 5.13027187 -8.7265625 3.8984375 C-6 3 -6 3 -3 4 C-3 3.34 -3 2.68 -3 2 C-2.01 2 -1.02 2 0 2 C0 1.34 0 0.68 0 0 Z " fill="#516FB3" transform="translate(434,447)"/>
<path d="M0 0 C3.79998692 1.46279066 5.02607875 3.28087127 6.9375 6.8125 C8.74512842 10.00567102 10.18870353 12.18870353 12.8125 14.8125 C15.24715296 17.24715296 15.71040429 18.62138337 16 22 C16.66 22 17.32 22 18 22 C19.5078125 23.75 19.5078125 23.75 21.125 26 C21.66382812 26.7425 22.20265625 27.485 22.7578125 28.25 C23.16773437 28.8275 23.57765625 29.405 24 30 C23.67 30.66 23.34 31.32 23 32 C13.73420391 22.12488852 6.65488881 11.77247807 0 0 Z " fill="#DDBA78" transform="translate(65,367)"/>
<path d="M0 0 C2.21044649 3.31566974 2.77919438 5.82000866 3.6875 9.6875 C6.16121655 19.63763791 10.3398506 28.88733162 15 38 C14.01 38 13.02 38 12 38 C9.2925889 34.34637635 7.94930132 30.340726 6.5 26.0625 C5.30371943 22.53884023 4.14505942 19.270801 2.38671875 15.98828125 C0.79817992 12.56509194 0.50406544 9.87968262 0.3125 6.125 C0.24675781 4.97257812 0.18101563 3.82015625 0.11328125 2.6328125 C0.07589844 1.76398438 0.03851563 0.89515625 0 0 Z " fill="#DEBE7D" transform="translate(113,298)"/>
<path d="M0 0 C4.81507853 3.91924997 9.27605916 8.13804945 13.6875 12.5 C14.24590576 13.04551514 14.80431152 13.59103027 15.37963867 14.15307617 C18.77221336 17.53753101 21.47678936 20.92357211 24 25 C23.01 25 22.02 25 21 25 C20.67 24.34 20.34 23.68 20 23 C19.360625 22.731875 18.72125 22.46375 18.0625 22.1875 C15.31401649 20.6050398 15.04632509 18.91476276 14 16 C13.34 15.67 12.68 15.34 12 15 C12 14.34 12 13.68 12 13 C11.01 12.67 10.02 12.34 9 12 C7.29006566 10.3777546 5.62652316 8.70586575 4 7 C3.236875 6.29875 2.47375 5.5975 1.6875 4.875 C0 3 0 3 0 0 Z " fill="#DDBB76" transform="translate(344,144)"/>
<path d="M0 0 C0.99 0 1.98 0 3 0 C-0.94687962 8.76207276 -9.20395761 15.68188187 -17 21 C-17.66 21 -18.32 21 -19 21 C-18.64643482 18.29319771 -18.33047602 17.25951064 -16.14453125 15.54296875 C-15.37496094 15.09566406 -14.60539063 14.64835937 -13.8125 14.1875 C-8.41638904 10.79884526 -4.90998563 6.75886814 -1.3125 1.5625 C-0.6628125 0.7890625 -0.6628125 0.7890625 0 0 Z " fill="#FDF6DA" transform="translate(542,347)"/>
<path d="M0 0 C2.31 0 4.62 0 7 0 C4.34219056 2.09933587 1.77396905 3.7073258 -1.30078125 5.12109375 C-2.11353516 5.49943359 -2.92628906 5.87777344 -3.76367188 6.26757812 C-4.60478516 6.65365234 -5.44589844 7.03972656 -6.3125 7.4375 C-12.03062962 10.07219375 -17.58086908 12.78947574 -23 16 C-23 15.01 -23 14.02 -23 13 C-21.35 12.67 -19.7 12.34 -18 12 C-17.67 11.01 -17.34 10.02 -17 9 C-14.41796875 7.39453125 -14.41796875 7.39453125 -11.1875 5.8125 C-10.12917969 5.28269531 -9.07085937 4.75289063 -7.98046875 4.20703125 C-5 3 -5 3 -1 3 C-0.67 2.01 -0.34 1.02 0 0 Z " fill="#FEF7DA" transform="translate(145,111)"/>
<path d="M0 0 C0 0.66 0 1.32 0 2 C-1.0828125 2.309375 -1.0828125 2.309375 -2.1875 2.625 C-5.78988814 4.38616754 -8.0768776 6.52358642 -10 10 C-11.82918028 16.13444607 -10.95362248 20.44718974 -8 26 C-11 25 -11 25 -13 22 C-14.36657384 9.20823324 -14.36657384 9.20823324 -11.3125 4.25 C-7.59838328 0.63626482 -5.14858314 0 0 0 Z " fill="#FEF7DD" transform="translate(388,102)"/>
<path d="M0 0 C2.90986376 4.36479564 3.86350527 8.61230354 4.375 13.8125 C4.8205307 18.07804397 6.40438697 21.60592022 8.078125 25.5234375 C9.38406562 29.0317695 9.72430811 32.2781595 10 36 C7.72276391 33.21790123 6.4315009 30.84884937 5.4296875 27.40234375 C5.1733252 26.52280029 4.91696289 25.64325684 4.65283203 24.73706055 C4.39614746 23.81320557 4.13946289 22.88935059 3.875 21.9375 C3.60929199 20.99753174 3.34358398 20.05756348 3.06982422 19.08911133 C1.33611802 12.75610052 0.03090825 6.59891132 0 0 Z " fill="#DEBB78" transform="translate(45,309)"/>
<path d="M0 0 C0.33 0 0.66 0 1 0 C3.38776806 28.93263641 3.38776806 28.93263641 3 43 C2.67 43 2.34 43 2 43 C-0.71083971 28.76809152 -0.19633348 14.42749047 0 0 Z " fill="#E0C07E" transform="translate(42,266)"/>
<path d="M0 0 C0.99 0.33 1.98 0.66 3 1 C-13.60193431 18.25016602 -13.60193431 18.25016602 -22 22 C-22 20 -22 20 -20.125 17.9375 C-18 16 -18 16 -16 15 C-16 14.34 -16 13.68 -16 13 C-13.61009793 11.34034579 -11.60325274 10.13405616 -8.75 9.5 C-8.1725 9.335 -7.595 9.17 -7 9 C-6.67 8.01 -6.34 7.02 -6 6 C-4.0625 3.8125 -4.0625 3.8125 -2 2 C-1.34 2 -0.68 2 0 2 C0 1.34 0 0.68 0 0 Z " fill="#DEBB76" transform="translate(588,399)"/>
<path d="M0 0 C7.63607003 7.36719432 14.64827424 16.24688599 19 26 C19 26.66 19 27.32 19 28 C14.81546204 26.60515401 14.45264331 24.50459395 12.5 20.625 C10.6097738 16.88599994 9.03989722 13.87307359 6 11 C6 10.34 6 9.68 6 9 C5.34 9 4.68 9 4 9 C0 2.25 0 2.25 0 0 Z " fill="#FDF4D7" transform="translate(308,208)"/>
<path d="M0 0 C7.20179992 0.56741454 13.61762907 2.6232495 20.4375 4.9375 C21.53771484 5.29779297 22.63792969 5.65808594 23.77148438 6.02929688 C25.33672852 6.55426758 25.33672852 6.55426758 26.93359375 7.08984375 C28.3575647 7.56732056 28.3575647 7.56732056 29.81030273 8.05444336 C32 9 32 9 33 11 C31.10307857 10.54619105 29.20750405 10.08675008 27.3125 9.625 C26.25675781 9.36976563 25.20101563 9.11453125 24.11328125 8.8515625 C21 8 21 8 18.625 7.03125 C15.05736549 5.6296793 11.40884364 4.77291133 7.6875 3.875 C6.94693359 3.69324219 6.20636719 3.51148438 5.44335938 3.32421875 C3.629696 2.8795787 1.81495392 2.43934255 0 2 C0 1.34 0 0.68 0 0 Z " fill="#FDF5D7" transform="translate(240,171)"/>
<path d="M0 0 C3.06434249 2.87862476 5.70324855 5.83932327 8.25 9.1875 C12.21508267 14.38674747 16.57374864 19.1923483 21 24 C20.01 24.33 19.02 24.66 18 25 C15 21.25 15 21.25 15 19 C14.38125 18.690625 13.7625 18.38125 13.125 18.0625 C11.75 17.375 10.375 16.6875 9 16 C9 15.34 9 14.68 9 14 C8.34 14 7.68 14 7 14 C6.54625 13.030625 6.0925 12.06125 5.625 11.0625 C4.34213779 7.92920418 4.34213779 7.92920418 2 7 C1.26924352 4.6859378 0.59861742 2.35171131 0 0 Z " fill="#FDF6D7" transform="translate(74,382)"/>
<path d="M0 0 C2.89448404 2.79778636 5.44945754 5.71198364 7.9375 8.875 C10.90843496 12.62892903 13.91643994 16.33827243 17 20 C16.34 20.33 15.68 20.66 15 21 C11.96586791 18.12555907 9.85429327 15.70858653 8 12 C7.01 11.67 6.02 11.34 5 11 C4.34 10.34 3.68 9.68 3 9 C3 8.34 3 7.68 3 7 C2.01 6.67 1.02 6.34 0 6 C0 4.02 0 2.04 0 0 Z " fill="#DFBC77" transform="translate(128,337)"/>
<path d="M0 0 C0 0.66 0 1.32 0 2 C-1.01320313 2.18175781 -1.01320313 2.18175781 -2.046875 2.3671875 C-2.93890625 2.53476562 -3.8309375 2.70234375 -4.75 2.875 C-6.07257813 3.11863281 -6.07257813 3.11863281 -7.421875 3.3671875 C-9.95567991 3.86922494 -9.95567991 3.86922494 -11.84960938 5.02734375 C-14.40004098 6.18094497 -16.19415384 6.22933959 -18.984375 6.1953125 C-19.91894531 6.18886719 -20.85351562 6.18242187 -21.81640625 6.17578125 C-22.78449219 6.15902344 -23.75257813 6.14226562 -24.75 6.125 C-25.73355469 6.11597656 -26.71710938 6.10695313 -27.73046875 6.09765625 C-30.15389407 6.07412785 -32.57682222 6.04125368 -35 6 C-35 5.67 -35 5.34 -35 5 C-34.34515625 4.91959473 -33.6903125 4.83918945 -33.015625 4.75634766 C-30.00976076 4.3843295 -27.0049006 4.00472012 -24 3.625 C-22.97003906 3.49867188 -21.94007813 3.37234375 -20.87890625 3.2421875 C-16.34984475 2.66523699 -11.91971801 2.06076594 -7.5 0.8984375 C-4 0 -4 0 0 0 Z " fill="#FCF4D3" transform="translate(502,453)"/>
<path d="M0 0 C0.93070313 0.11085938 1.86140625 0.22171875 2.8203125 0.3359375 C3.83738281 0.47902344 3.83738281 0.47902344 4.875 0.625 C4.875 0.955 4.875 1.285 4.875 1.625 C-10.15454494 3.65308317 -24.97345265 3.85561716 -40.125 3.625 C-40.125 3.295 -40.125 2.965 -40.125 2.625 C-39.11300537 2.595271 -39.11300537 2.595271 -38.08056641 2.56494141 C-34.97004139 2.4686189 -31.86009211 2.3593819 -28.75 2.25 C-27.15865234 2.20359375 -27.15865234 2.20359375 -25.53515625 2.15625 C-19.60327687 1.93789861 -14.08704079 1.30836975 -8.29541016 0.02587891 C-5.43862845 -0.50177414 -2.87227984 -0.36824101 0 0 Z " fill="#E6C58A" transform="translate(250.125,382.375)"/>
<path d="M0 0 C2.3125 -0.1875 2.3125 -0.1875 5 0 C6.02297922 0.97648017 7.01904252 1.98131338 8 3 C10.32534928 4.07323813 12.6244929 5.05671132 15 6 C16.093125 6.474375 17.18625 6.94875 18.3125 7.4375 C22.83888834 9.38033335 27.42120151 11.18506378 32 13 C32 13.66 32 14.32 32 15 C20.73248242 11.43195277 10.25997248 6.8772677 0 1 C0 0.67 0 0.34 0 0 Z " fill="#DFBF80" transform="translate(129,432)"/>
<path d="M0 0 C0.75 1.75 0.75 1.75 1 4 C-0.6875 6 -0.6875 6 -3 8 C-5.61342829 10.36841939 -7.36153832 12.53368363 -9 15.625 C-11.00998467 19.01684914 -11.59265257 19.56607462 -15 21 C-11.42517119 12.95663517 -6.34838808 6.11106516 0 0 Z " fill="#FEF5DA" transform="translate(140,203)"/>
<path d="M0 0 C-5.54798493 2.2380007 -10.79218575 3.72338695 -16.6875 4.6875 C-17.78674805 4.88182617 -17.78674805 4.88182617 -18.90820312 5.08007812 C-22.64013358 5.71608791 -26.2130549 6.15685571 -30 6 C-28.68 5.67 -27.36 5.34 -26 5 C-26 3.68 -26 2.36 -26 1 C-24.92621094 1.02320313 -23.85242188 1.04640625 -22.74609375 1.0703125 C-21.30990285 1.08908624 -19.87370435 1.1072847 -18.4375 1.125 C-17.73302734 1.14175781 -17.02855469 1.15851563 -16.30273438 1.17578125 C-10.78651916 1.22662194 -5.03384635 -1.67794878 0 0 Z " fill="#DFBA73" transform="translate(286,449)"/>
<path d="M0 0 C7.33305226 8.99965505 7.34845501 20.90751557 7 32 C6.67 32 6.34 32 6 32 C5.1862674 27.79190404 4.37423172 23.58348235 3.5625 19.375 C3.33240234 18.18519531 3.10230469 16.99539062 2.86523438 15.76953125 C2.53168945 14.03896484 2.53168945 14.03896484 2.19140625 12.2734375 C1.98717041 11.21560059 1.78293457 10.15776367 1.57250977 9.06787109 C1.00948259 6.05081373 0.49424927 3.02901358 0 0 Z " fill="#FEF7DD" transform="translate(632,224)"/>
<path d="M0 0 C1.00306776 4.01227106 1.01825679 4.88828549 -0.25 8.5625 C-0.50265625 9.32691406 -0.7553125 10.09132813 -1.015625 10.87890625 C-2.05939877 13.12799022 -3.23934596 14.29099181 -5 16 C-6.20049407 19.10007201 -6.20049407 19.10007201 -7 22 C-7.99 21.67 -8.98 21.34 -10 21 C-6.7 14.07 -3.4 7.14 0 0 Z " fill="#DFBD78" transform="translate(471,406)"/>
<path d="M0 0 C0.66 0 1.32 0 2 0 C-0.11644743 6.64168611 -2.5673908 13.10461783 -5.1875 19.5625 C-5.55552734 20.47580078 -5.92355469 21.38910156 -6.30273438 22.33007812 C-7.19943546 24.55436264 -8.09855598 26.77763445 -9 29 C-9.33 29 -9.66 29 -10 29 C-9.58411954 22.80481527 -8.39748106 17.73310689 -6 12 C-5.34 12 -4.68 12 -4 12 C-3.86722656 11.42765625 -3.73445313 10.8553125 -3.59765625 10.265625 C-3.00619683 8.02349125 -2.26711146 5.91420381 -1.4375 3.75 C-1.16808594 3.04359375 -0.89867187 2.3371875 -0.62109375 1.609375 C-0.41613281 1.07828125 -0.21117187 0.5471875 0 0 Z " fill="#FEF7D9" transform="translate(60,191)"/>
<path d="M0 0 C3.89134005 3.68250248 7.00494256 7.54728228 10.0625 11.9375 C10.69381836 12.82985352 10.69381836 12.82985352 11.33789062 13.74023438 C13.9548917 17.45272427 16.49522756 21.21102553 19 25 C18.01 25 17.02 25 16 25 C15.7525 24.4225 15.505 23.845 15.25 23.25 C14.08155783 20.90413377 14.08155783 20.90413377 12.0625 19.0625 C9.87535893 16.87535893 8.56492796 14.6535735 7 12 C6.46375 11.46375 5.9275 10.9275 5.375 10.375 C4 9 4 9 3 6 C2.34 5.67 1.68 5.34 1 5 C0.375 2.4375 0.375 2.4375 0 0 Z " fill="#DDBC77" transform="translate(268,394)"/>
<path d="M0 0 C0 3.51053759 -0.45893547 3.84563597 -2.75 6.3125 C-8.57461868 12.75182243 -8.57461868 12.75182243 -10 21 C-11.375 22.8125 -11.375 22.8125 -13 24 C-13.66 24 -14.32 24 -15 24 C-13.50136149 14.28468829 -6.56373021 6.89691448 0 0 Z " fill="#5470AF" transform="translate(275,242)"/>
<path d="M0 0 C3.64813364 3.5055778 6.76940717 7.1249963 9.8125 11.1875 C10.99779297 12.75564453 10.99779297 12.75564453 12.20703125 14.35546875 C14 17 14 17 14 19 C13.01 19 12.02 19 11 19 C11 18.01 11 17.02 11 16 C10.01 15.67 9.02 15.34 8 15 C8 14.01 8 13.02 8 12 C7.01 12 6.02 12 5 12 C4.54625 11.071875 4.0925 10.14375 3.625 9.1875 C2.0578367 5.96078611 2.0578367 5.96078611 0 3 C0 2.01 0 1.02 0 0 Z " fill="#FDF5DA" transform="translate(380,129)"/>
<path d="M0 0 C0 0.99 0 1.98 0 3 C-0.64066406 3.15855469 -1.28132813 3.31710938 -1.94140625 3.48046875 C-6.41142648 4.68624172 -10.12909709 5.81900924 -13.8125 8.6875 C-17.02793903 11.02026949 -18.1622752 11.58147345 -22 11 C-19.86958607 8.66795391 -17.9142326 7.29114319 -15.05859375 5.95703125 C-13.93614258 5.43012695 -13.93614258 5.43012695 -12.79101562 4.89257812 C-11.62602539 4.35793945 -11.62602539 4.35793945 -10.4375 3.8125 C-9.65697266 3.44447266 -8.87644531 3.07644531 -8.07226562 2.69726562 C-2.2723939 0 -2.2723939 0 0 0 Z " fill="#DEBE7B" transform="translate(150,113)"/>
<path d="M0 0 C8.66688542 4.76678698 14.06232445 13.14023002 18 22 C17.34 22 16.68 22 16 22 C16 21.34 16 20.68 16 20 C15.34 20 14.68 20 14 20 C13.649375 19.175 13.29875 18.35 12.9375 17.5 C10.25139661 12.10221128 5.84226491 7.79502735 1.5625 3.625 C0 2 0 2 0 0 Z " fill="#536FAC" transform="translate(297,242)"/>
<path d="M0 0 C1 3 1 3 0.00390625 5.26171875 C-0.47175781 6.06222656 -0.94742188 6.86273438 -1.4375 7.6875 C-1.91058594 8.49574219 -2.38367188 9.30398438 -2.87109375 10.13671875 C-3.42990234 11.05904297 -3.42990234 11.05904297 -4 12 C-4.66 12 -5.32 12 -6 12 C-6.433125 13.1446875 -6.433125 13.1446875 -6.875 14.3125 C-8 17 -8 17 -10 20 C-10.99 19.67 -11.98 19.34 -13 19 C-12.31292969 18.04738281 -11.62585938 17.09476562 -10.91796875 16.11328125 C-10.00771072 14.84642729 -9.09756015 13.57949612 -8.1875 12.3125 C-7.73568359 11.68666016 -7.28386719 11.06082031 -6.81835938 10.41601562 C-4.38530927 7.02395307 -2.08490432 3.62260784 0 0 Z " fill="#FDF6D8" transform="translate(614,368)"/>
<path d="M0 0 C1.35562511 4.06687532 0.03452122 6.89861351 -1.25 10.8125 C-1.46785156 11.51181641 -1.68570313 12.21113281 -1.91015625 12.93164062 C-3.26563915 17.16851554 -4.89825953 21.06232741 -7 25 C-8.60080151 20.99799622 -7.29279692 17.95443764 -6 14 C-5.34 14 -4.68 14 -4 14 C-3.81824219 13.11248047 -3.81824219 13.11248047 -3.6328125 12.20703125 C-2.73255357 7.96196415 -1.79543379 3.97560339 0 0 Z " fill="#DEBB75" transform="translate(632,322)"/>
<path d="M0 0 C0.33 0.99 0.66 1.98 1 3 C-2.67047191 9.42021527 -8.30831199 14.40229878 -14 19 C-14.66 18.67 -15.32 18.34 -16 18 C-15.43152344 17.45472656 -14.86304688 16.90945313 -14.27734375 16.34765625 C-9.02168326 11.21483257 -4.35105211 5.91799049 0 0 Z " fill="#FEF7DC" transform="translate(600,388)"/>
<path d="M0 0 C2.21938778 3.32908167 3.42348225 6.68145864 4.6875 10.4375 C4.92533203 11.10587891 5.16316406 11.77425781 5.40820312 12.46289062 C7.46116337 18.5374856 7.46116337 18.5374856 6 22 C3.42315752 18.13473629 2.16254712 14.48411031 1 10 C0.67 9.01 0.34 8.02 0 7 C-0.03954234 4.66700175 -0.04401732 2.33291811 0 0 Z " fill="#FCF3D5" transform="translate(560,234)"/>
<path d="M0 0 C1.31538327 4.15771494 0.34433068 6.8879297 -1 11 C-1.66 11 -2.32 11 -3 11 C-3.144375 11.5775 -3.28875 12.155 -3.4375 12.75 C-3.623125 13.4925 -3.80875 14.235 -4 15 C-4.12375 15.721875 -4.2475 16.44375 -4.375 17.1875 C-4.58125 17.785625 -4.7875 18.38375 -5 19 C-5.99 19.33 -6.98 19.66 -8 20 C-5.83836487 13.06001352 -3.1063786 6.56882431 0 0 Z " fill="#E0BD7A" transform="translate(63,189)"/>
<path d="M0 0 C-0.639375 0.103125 -1.27875 0.20625 -1.9375 0.3125 C-2.618125 0.539375 -3.29875 0.76625 -4 1 C-4.33 1.99 -4.66 2.98 -5 4 C-10.17606998 6.52167512 -15.38558376 6.19972232 -21 6 C-17.29335058 3.97559916 -13.36475968 2.65388472 -9.375 1.3125 C-8.694375 1.07466797 -8.01375 0.83683594 -7.3125 0.59179688 C-2.23691153 -1.11845576 -2.23691153 -1.11845576 0 0 Z " fill="#FCF3D6" transform="translate(523,447)"/>
<path d="M0 0 C0.928125 0.495 1.85625 0.99 2.8125 1.5 C9.73681533 4.47759604 17.76137601 3.28686649 25 2 C24.34 3.32 23.68 4.64 23 6 C20.1033852 5.88569952 17.20821684 5.7589576 14.3125 5.625 C13.49587891 5.5940625 12.67925781 5.563125 11.83789062 5.53125 C7.49873367 5.32044076 3.95716543 4.98261241 0 3 C0 2.01 0 1.02 0 0 Z " fill="#FCF3D4" transform="translate(411,168)"/>
<path d="M0 0 C5.60176385 2.00817949 10.98980384 4.30930106 16.38671875 6.81640625 C18.89882638 7.95417697 21.43193842 8.99591106 24 10 C24 10.33 24 10.66 24 11 C15.14542774 10.24641938 7.81200113 5.97701876 0 2 C0 1.34 0 0.68 0 0 Z " fill="#FDF6DA" transform="translate(135,436)"/>
<path d="M0 0 C12.53448696 0.86132098 12.53448696 0.86132098 18 3 C18.33 3.99 18.66 4.98 19 6 C12.16018724 5.48378772 6.36123316 3.51409031 0 1 C0 0.67 0 0.34 0 0 Z " fill="#FCF3D6" transform="translate(176,377)"/>
<path d="M0 0 C0.99 0.33 1.98 0.66 3 1 C3 1.66 3 2.32 3 3 C3.66 3 4.32 3 5 3 C5.99 4.485 5.99 4.485 7 6 C7.99 6.33 8.98 6.66 10 7 C10 8.32 10 9.64 10 11 C10.598125 11.268125 11.19625 11.53625 11.8125 11.8125 C13.97224808 12.98493467 15.35790256 14.19369282 17 16 C16.01 16.33 15.02 16.66 14 17 C11.65863048 14.54921238 9.32832922 12.08817454 7 9.625 C6.33226562 8.92632812 5.66453125 8.22765625 4.9765625 7.5078125 C4.34492188 6.8375 3.71328125 6.1671875 3.0625 5.4765625 C2.47597656 4.85861816 1.88945312 4.24067383 1.28515625 3.60400391 C0 2 0 2 0 0 Z " fill="#5A75B5" transform="translate(300,389)"/>
<path d="M0 0 C2.03043415 3.70032391 3.30910463 7.63141057 4.625 11.625 C4.85445312 12.305625 5.08390625 12.98625 5.3203125 13.6875 C7 18.74655878 7 18.74655878 7 21 C6.01 21 5.02 21 4 21 C1.25545087 13.75880117 -0.51783416 7.76751234 0 0 Z " fill="#FDF3D7" transform="translate(47,324)"/>
<path d="M0 0 C1.32 0 2.64 0 4 0 C1.27139158 6.11584647 -3.99266857 11.0821533 -10 14 C-10.66 14 -11.32 14 -12 14 C-11.67 12.68 -11.34 11.36 -11 10 C-9.35 10 -7.7 10 -6 10 C-6 9.34 -6 8.68 -6 8 C-5.195625 7.38125 -4.39125 6.7625 -3.5625 6.125 C-0.96935871 3.97459015 -0.34779165 3.24605542 0 0 Z " fill="#DDBC77" transform="translate(395,305)"/>
<path d="M0 0 C0.33 0.99 0.66 1.98 1 3 C0.03126968 4.35622245 -0.97676564 5.68441297 -2 7 C-3.01529541 9.32671865 -4.01488198 11.6603447 -5 14 C-6.5 16.9375 -6.5 16.9375 -8 19 C-8.99 19 -9.98 19 -11 19 C-9.41467191 14.44435939 -7.00996919 10.68524231 -4.375 6.6875 C-3.95476562 6.04232422 -3.53453125 5.39714844 -3.1015625 4.73242188 C-2.07161759 3.15239276 -1.03634372 1.57583953 0 0 Z " fill="#DFBD7B" transform="translate(75,170)"/>
<path d="M0 0 C0.33 0 0.66 0 1 0 C1 2.97 1 5.94 1 9 C0.01 8.67 -0.98 8.34 -2 8 C-2.4021875 9.299375 -2.4021875 9.299375 -2.8125 10.625 C-3.97111987 13.91791964 -5.38209839 16.91127875 -7 20 C-7.66 20 -8.32 20 -9 20 C-7.32073668 15.63221913 -5.36694083 11.41834992 -3.375 7.1875 C-2.88773437 6.14819336 -2.88773437 6.14819336 -2.390625 5.08789062 C-1.59500115 3.39133977 -0.79767301 1.69558835 0 0 Z " fill="#E0BE7C" transform="translate(460,428)"/>
<path d="M0 0 C0.69140625 1.73828125 0.69140625 1.73828125 1 4 C-1.54151 8.3765939 -4.56351909 11.58211464 -9.4375 13 C-10.283125 13 -11.12875 13 -12 13 C-11.319375 12.34 -10.63875 11.68 -9.9375 11 C-6.43274653 7.50531766 -3.22778212 3.74869221 0 0 Z " fill="#FEF7DF" transform="translate(399,305)"/>
<path d="M0 0 C0.99 0.495 0.99 0.495 2 1 C2.309375 2.155 2.61875 3.31 2.9375 4.5 C3.288125 5.655 3.63875 6.81 4 8 C4.99 8.33 5.98 8.66 7 9 C7.103125 9.680625 7.20625 10.36125 7.3125 11.0625 C8.14725019 14.62915989 9.49472754 17.66222194 11 21 C10.34 21.33 9.68 21.66 9 22 C7.49394598 18.71106997 5.99619468 15.41842554 4.5 12.125 C4.07074219 11.18785156 3.64148438 10.25070312 3.19921875 9.28515625 C2.79316406 8.38925781 2.38710938 7.49335938 1.96875 6.5703125 C1.59169922 5.74289551 1.21464844 4.91547852 0.82617188 4.06298828 C0 2 0 2 0 0 Z " fill="#4967AD" transform="translate(273,343)"/>
<path d="M0 0 C0.66 0.33 1.32 0.66 2 1 C-1.19169281 4.46526648 -3.62934023 6.34623684 -8 8 C-8.99 9.485 -8.99 9.485 -10 11 C-13.625 11.6875 -13.625 11.6875 -17 12 C-13.55797398 9.15467557 -10.03930676 6.6731357 -6.25 4.3125 C-2.95006695 2.38471402 -2.95006695 2.38471402 0 0 Z " fill="#FDF2D2" transform="translate(560,425)"/>
<path d="M0 0 C0.33 0 0.66 0 1 0 C1.70859201 8.14880812 -1.51682039 15.27523059 -6 22 C-7 20 -7 20 -6.328125 17.96875 C-5.97234375 17.1540625 -5.6165625 16.339375 -5.25 15.5 C-3.11870606 10.42337624 -1.48757331 5.29666254 0 0 Z " fill="#E0BF7D" transform="translate(566,304)"/>
<path d="M0 0 C1.16015625 0.11794922 1.16015625 0.11794922 2.34375 0.23828125 C4.5 0.6875 4.5 0.6875 7.5 2.6875 C-1.905 3.1825 -1.905 3.1825 -11.5 3.6875 C-7.16698664 0.43773998 -5.19688072 -0.58031835 0 0 Z " fill="#5D78B8" transform="translate(287.5,238.3125)"/>
<path d="M0 0 C2.3145363 3.47180445 3.44955764 6.99795123 4.6875 10.9375 C4.92533203 11.65357422 5.16316406 12.36964844 5.40820312 13.10742188 C6.58772664 16.83969715 7.18041207 19.26865804 6 23 C3.63930084 20.63930084 3.74484413 20.02286175 3.5625 16.8125 C3.28650176 13.62829812 2.79826839 11.14322252 1.4375 8.25 C0.05559537 5.12569389 -0.30442747 3.34870216 0 0 Z " fill="#FAEDCA" transform="translate(331,245)"/>
<path d="M0 0 C3.6578722 4.19977919 6.79365864 8.87201939 9 14 C8.67 14.66 8.34 15.32 8 16 C5 15 5 15 3.8671875 12.890625 C3.53976562 12.01921875 3.21234375 11.1478125 2.875 10.25 C2.54242187 9.38890625 2.20984375 8.5278125 1.8671875 7.640625 C1.03382723 5.10300543 0.46319234 2.62790754 0 0 Z " fill="#FDF6D9" transform="translate(551,218)"/>
<path d="M0 0 C2.1875 -0.3125 2.1875 -0.3125 5 0 C6.70779973 1.62449243 8.37550757 3.29220027 10 5 C12.17346568 5.86119134 12.17346568 5.86119134 14 6 C14.33 7.65 14.66 9.3 15 11 C11.46183838 8.92172849 8.05485246 6.71967505 4.6875 4.375 C3.80449219 3.76398438 2.92148437 3.15296875 2.01171875 2.5234375 C1.34785156 2.02070313 0.68398438 1.51796875 0 1 C0 0.67 0 0.34 0 0 Z " fill="#FDF5DC" transform="translate(561,127)"/>
<path d="M0 0 C0.93779297 0.00322266 1.87558594 0.00644531 2.84179688 0.00976562 C4.30649414 0.02233398 4.30649414 0.02233398 5.80078125 0.03515625 C6.78884766 0.03966797 7.77691406 0.04417969 8.79492188 0.04882812 C11.23443599 0.06061322 13.67382814 0.07706614 16.11328125 0.09765625 C16.11328125 0.42765625 16.11328125 0.75765625 16.11328125 1.09765625 C13.28052172 1.43661893 10.44723464 1.76895319 7.61328125 2.09765625 C6.42605469 2.24074219 6.42605469 2.24074219 5.21484375 2.38671875 C0.14298721 2.96873507 -4.78165734 3.1913271 -9.88671875 3.09765625 C-6.80878016 0.01971766 -4.15411564 -0.02517646 0 0 Z " fill="#FEF4D6" transform="translate(412.88671875,97.90234375)"/>
<path d="M0 0 C0.66 0.33 1.32 0.66 2 1 C0.75160501 2.105981 -0.49879234 3.20970201 -1.75 4.3125 C-2.44609375 4.92738281 -3.1421875 5.54226563 -3.859375 6.17578125 C-9.52034261 11 -9.52034261 11 -12 11 C-12 11.66 -12 12.32 -12 13 C-12.99 12.67 -13.98 12.34 -15 12 C-13.06401165 10.37316948 -11.12629031 8.74848531 -9.1875 7.125 C-8.64029297 6.66480469 -8.09308594 6.20460938 -7.52929688 5.73046875 C-5.08054339 3.68242038 -2.65921675 1.77281117 0 0 Z " fill="#DEBB74" transform="translate(540,355)"/>
<path d="M0 0 C1.03139845 3.75429036 1.21296253 7.095687 1 11 C0.01 12.485 0.01 12.485 -1 14 C-1.66 14 -2.32 14 -3 14 C-3.33 15.32 -3.66 16.64 -4 18 C-4.66 18 -5.32 18 -6 18 C-4 12 -2 6 0 0 Z " fill="#FCF4D8" transform="translate(631,329)"/>
<path d="M0 0 C2.86562595 2.47906057 4.1617794 5.12161059 5.6875 8.5625 C6.12449219 9.53316406 6.56148437 10.50382813 7.01171875 11.50390625 C8 14 8 14 8 16 C7.34 16 6.68 16 6 16 C0 5.8 0 5.8 0 0 Z " fill="#E0BE7D" transform="translate(615,186)"/>
<path d="M0 0 C0.8971875 0.309375 0.8971875 0.309375 1.8125 0.625 C-1.18231865 4.94106218 -1.18231865 4.94106218 -3.1875 6.625 C-6.5 6.5 -6.5 6.5 -9.1875 5.625 C-3.21691176 -0.55147059 -3.21691176 -0.55147059 0 0 Z " fill="#E3BC75" transform="translate(489.1875,384.375)"/>
<path d="M0 0 C0.33 0 0.66 0 1 0 C1.103125 1.11375 1.20625 2.2275 1.3125 3.375 C1.539375 4.57125 1.76625 5.7675 2 7 C5.16240582 9.10827055 6.50657469 9.33817465 10.1875 9.625 C11.08855469 9.69976562 11.98960937 9.77453125 12.91796875 9.8515625 C13.60503906 9.90054687 14.29210937 9.94953125 15 10 C15 10.33 15 10.66 15 11 C13.08364783 11.05423638 11.16685075 11.09289963 9.25 11.125 C7.64898437 11.15980469 7.64898437 11.15980469 6.015625 11.1953125 C3.07529894 11.00487687 1.47638122 10.52670104 -1 9 C-1.125 2.25 -1.125 2.25 0 0 Z " fill="#FEF8DC" transform="translate(449,449)"/>
<path d="M0 0 C2.88950836 4.33426254 5.23902393 8.70537026 4.6875 14 C4.460625 14.66 4.23375 15.32 4 16 C3.34 16 2.68 16 2 16 C1.34 10.72 0.68 5.44 0 0 Z " fill="#E0BF7A" transform="translate(626,209)"/>
<path d="M0 0 C0.66 0.33 1.32 0.66 2 1 C0.26017005 6.81261371 -1.8110489 11.83169994 -5 17 C-6 15 -6 15 -5.546875 13.046875 C-3.97535577 8.51720193 -2.28055679 4.23531976 0 0 Z " fill="#526EB3" transform="translate(453,414)"/>
<path d="M0 0 C0.33 0 0.66 0 1 0 C1.13277344 0.94101562 1.26554687 1.88203125 1.40234375 2.8515625 C1.57894531 4.09679687 1.75554687 5.34203125 1.9375 6.625 C2.11152344 7.85476563 2.28554688 9.08453125 2.46484375 10.3515625 C2.93774301 13.57556184 3.45151002 16.78812176 4 20 C3.34 20.33 2.68 20.66 2 21 C1.4638921 18.81619325 0.94679902 16.62771417 0.4375 14.4375 C0.14746094 13.21933594 -0.14257812 12.00117188 -0.44140625 10.74609375 C-1.02033181 6.86364894 -0.74517495 3.83444327 0 0 Z " fill="#5773B3" transform="translate(320,280)"/>
<path d="M0 0 C0.33 0 0.66 0 1 0 C1 2.64 1 5.28 1 8 C0.34 8 -0.32 8 -1 8 C-1.33 11.96 -1.66 15.92 -2 20 C-2.66 20 -3.32 20 -4 20 C-3.56615452 12.96871122 -2.25678003 6.670985 0 0 Z " fill="#FBF1CE" transform="translate(117,240)"/>
<path d="M0 0 C0.66 0 1.32 0 2 0 C0.62712658 3.69876091 -1.06355453 6.9514476 -3.125 10.3125 C-3.66382812 11.19550781 -4.20265625 12.07851562 -4.7578125 12.98828125 C-5.16773438 13.65214844 -5.57765625 14.31601563 -6 15 C-6.66 13.68 -7.32 12.36 -8 11 C-7.34 11 -6.68 11 -6 11 C-4.47700477 8.06279492 -3.19899698 5.0831351 -2 2 C-1.34 2 -0.68 2 0 2 C0 1.34 0 0.68 0 0 Z " fill="#FEF8DB" transform="translate(69,176)"/>
<path d="M0 0 C4.94646432 0.43645273 7.30882294 2.85857272 11 6 C11.7425 6.185625 12.485 6.37125 13.25 6.5625 C15 7 15 7 16.25 9.0625 C16.4975 9.701875 16.745 10.34125 17 11 C12.80591769 9.5137853 9.37332677 7.41721984 5.6875 4.9375 C4.61886719 4.22464844 3.55023438 3.51179688 2.44921875 2.77734375 C1.64097656 2.19082031 0.83273438 1.60429687 0 1 C0 0.67 0 0.34 0 0 Z " fill="#DFBD7D" transform="translate(111,420)"/>
<path d="M0 0 C0.66 0 1.32 0 2 0 C0.35433477 5.68502535 -2.29032784 10.76681636 -5 16 C-5.33 16 -5.66 16 -6 16 C-6 14.02 -6 12.04 -6 10 C-5.34 9.67 -4.68 9.34 -4 9 C-2.87293294 6.88984046 -2.87293294 6.88984046 -1.875 4.4375 C-1.34519531 3.19806641 -1.34519531 3.19806641 -0.8046875 1.93359375 C-0.53914063 1.29550781 -0.27359375 0.65742188 0 0 Z " fill="#FEF8DF" transform="translate(472,400)"/>
<path d="M0 0 C0.33 0 0.66 0 1 0 C1.12117188 0.56847656 1.24234375 1.13695312 1.3671875 1.72265625 C2.16907974 5.41752897 3.01506178 9.05227322 4.0625 12.6875 C4.9401518 15.78853637 5.53378287 18.81418292 6 22 C3.03319058 19.03319058 2.46240549 15.52983775 1.3125 11.5625 C1.07466797 10.78583984 0.83683594 10.00917969 0.59179688 9.20898438 C0.37201172 8.46068359 0.15222656 7.71238281 -0.07421875 6.94140625 C-0.27619873 6.25763916 -0.47817871 5.57387207 -0.6862793 4.86938477 C-1 3 -1 3 0 0 Z " fill="#4C68AD" transform="translate(264,312)"/>
<path d="M0 0 C2.560881 3.24640915 4.62476717 6.66940716 6.6875 10.25 C7.31011719 11.32765625 7.93273437 12.4053125 8.57421875 13.515625 C9.04472656 14.33546875 9.51523437 15.1553125 10 16 C9.01 16 8.02 16 7 16 C6.731875 15.030625 6.46375 14.06125 6.1875 13.0625 C5.795625 12.051875 5.40375 11.04125 5 10 C4.01 9.67 3.02 9.34 2 9 C-0.04108797 5.99208089 -0.19878036 3.57804656 0 0 Z " fill="#FDF5D5" transform="translate(342,288)"/>
<path d="M0 0 C1.37344385 4.39844322 0.24307502 7.92504555 -0.9375 12.25 C-1.23043945 13.36761719 -1.23043945 13.36761719 -1.52929688 14.5078125 C-2.01104198 16.34079386 -2.50439225 18.17071818 -3 20 C-3.33 20 -3.66 20 -4 20 C-4.02689216 18.52093108 -4.04634621 17.04172517 -4.0625 15.5625 C-4.07410156 14.73878906 -4.08570313 13.91507813 -4.09765625 13.06640625 C-4 11 -4 11 -3 10 C-2.63239269 7.67182036 -2.29758419 5.3381615 -2 3 C-1.34 3 -0.68 3 0 3 C0 2.01 0 1.02 0 0 Z " fill="#FEF5D9" transform="translate(49,220)"/>
<path d="M0 0 C0.99 0.33 1.98 0.66 3 1 C-1.33333333 5.33333333 -5.66666667 9.66666667 -10 14 C-9.33076763 8.19998612 -4.00618788 3.85781055 0 0 Z " fill="#FEF8DF" transform="translate(93,146)"/>
<path d="M0 0 C5.31027254 1.46032495 9.46330032 3.98320986 14 7 C11 8 11 8 8.95703125 7.22265625 C8.24933594 6.83980469 7.54164063 6.45695313 6.8125 6.0625 C6.09707031 5.68222656 5.38164062 5.30195313 4.64453125 4.91015625 C3.83048828 4.45962891 3.83048828 4.45962891 3 4 C3 3.34 3 2.68 3 2 C2.01 2 1.02 2 0 2 C0 1.34 0 0.68 0 0 Z " fill="#FEF8DB" transform="translate(273,182)"/>
<path d="M0 0 C0.99 0 1.98 0 3 0 C4.50156874 3.00313748 4.09281204 5.79067522 4.0625 9.125 C4.05347656 10.40632813 4.04445313 11.68765625 4.03515625 13.0078125 C4.02355469 13.99523437 4.01195312 14.98265625 4 16 C3.01 16.33 2.02 16.66 1 17 C1.2475 15.9790625 1.2475 15.9790625 1.5 14.9375 C2.42934163 9.4776179 2.44105075 5.03466718 0 0 Z " fill="#FDF6DA" transform="translate(292,426)"/>
<path d="M0 0 C1.32 0.33 2.64 0.66 4 1 C4 1.66 4 2.32 4 3 C4.58265625 3.26554687 5.1653125 3.53109375 5.765625 3.8046875 C8.06174228 5.03302996 9.80356018 6.40314939 11.75 8.125 C12.67039062 8.93324219 12.67039062 8.93324219 13.609375 9.7578125 C14.06828125 10.16773438 14.5271875 10.57765625 15 11 C14.67 11.66 14.34 12.32 14 13 C11.66270866 11.02546836 9.33085338 9.04462531 7 7.0625 C6.33226563 6.49853516 5.66453125 5.93457031 4.9765625 5.35351562 C4.34492187 4.81533203 3.71328125 4.27714844 3.0625 3.72265625 C2.47597656 3.22515869 1.88945313 2.72766113 1.28515625 2.21508789 C0.86105469 1.81410889 0.43695313 1.41312988 0 1 C0 0.67 0 0.34 0 0 Z " fill="#DCBD7D" transform="translate(96,407)"/>
<path d="M0 0 C2.46073955 1.28724818 4.91858171 2.57955313 7.375 3.875 C8.07367188 4.23980469 8.77234375 4.60460937 9.4921875 4.98046875 C14.7734375 7.7734375 14.7734375 7.7734375 17 10 C13.15199499 9.36100647 9.82316582 8.24713859 6.25 6.6875 C5.28578125 6.27886719 4.3215625 5.87023437 3.328125 5.44921875 C1 4 1 4 0.35449219 1.90942383 C0.23750977 1.27931396 0.12052734 0.6492041 0 0 Z " fill="#DCBC7A" transform="translate(159,368)"/>
<path d="M0 0 C2.78518047 1.17834558 4.51494326 2.45772734 6.8125 4.5 C10.00809223 7.27060299 12.89998627 8.09799698 17 9 C16.01 9.66 15.02 10.32 14 11 C8.73335245 9.94667049 4.70816532 5.67350957 1 2 C0.67 1.34 0.34 0.68 0 0 Z " fill="#DDBD7D" transform="translate(356,308)"/>
<path d="M0 0 C0.33 0 0.66 0 1 0 C1.2846391 4.9337444 1.14832529 7.22200966 -2 11 C-2.71433121 13.64934822 -2.71433121 13.64934822 -3 16 C-3.66 16 -4.32 16 -5 16 C-4.54762239 14.08191891 -4.08785537 12.16557967 -3.625 10.25 C-3.24214844 8.64898437 -3.24214844 8.64898437 -2.8515625 7.015625 C-2.12466459 4.44147278 -1.2973776 2.32399814 0 0 Z " fill="#DFBF7D" transform="translate(54,210)"/>
<path d="M0 0 C11.70615034 -0.55353075 11.70615034 -0.55353075 16 3 C14.68 3.33 13.36 3.66 12 4 C12 4.66 12 5.32 12 6 C11.34 6 10.68 6 10 6 C10 4.35 10 2.7 10 1 C6.7 1 3.4 1 0 1 C0 0.67 0 0.34 0 0 Z " fill="#E2BA6D" transform="translate(246,384)"/>
<path d="M0 0 C0.98484375 0.10183594 1.9696875 0.20367187 2.984375 0.30859375 C4.10585937 0.43427734 4.10585937 0.43427734 5.25 0.5625 C5.25 0.8925 5.25 1.2225 5.25 1.5625 C-3.165 2.0575 -3.165 2.0575 -11.75 2.5625 C-8.1867676 -1.0007324 -4.81336534 -0.51571772 0 0 Z " fill="#E2C180" transform="translate(249.75,382.4375)"/>
<path d="M0 0 C0.33 0 0.66 0 1 0 C1.22731216 6.93302093 0.42002108 13.2168636 -1 20 C-1.33 20 -1.66 20 -2 20 C-2.21133202 12.95559921 -2.07965362 6.75887425 0 0 Z " fill="#DEBC73" transform="translate(48,228)"/>
<path d="M0 0 C0.66 0 1.32 0 2 0 C3.85776765 3.13498292 4.20140476 5.37471432 4 9 C4.66 9 5.32 9 6 9 C6 11.31 6 13.62 6 16 C4.08614468 13.12921701 3.03567048 10.66588344 1.875 7.4375 C1.52179687 6.46683594 1.16859375 5.49617187 0.8046875 4.49609375 C0 2 0 2 0 0 Z " fill="#FEF7E0" transform="translate(625,204)"/>
<path d="M0 0 C4.00972202 3.67557852 6.45335415 7.18966896 9 12 C5.61447304 10.54905987 3.31867051 8.8783496 1 6 C0.25 2.75 0.25 2.75 0 0 Z " fill="#FEF7D8" transform="translate(394,148)"/>
<path d="M0 0 C4.29 1.65 8.58 3.3 13 5 C12.34 5.66 11.68 6.32 11 7 C8.69 6.34 6.38 5.68 4 5 C4 4.34 4 3.68 4 3 C2.68 2.67 1.36 2.34 0 2 C0 1.34 0 0.68 0 0 Z " fill="#DEBD76" transform="translate(290,112)"/>
<path d="M0 0 C0.66 0.33 1.32 0.66 2 1 C0.38256073 4.520309 -1.07120925 6.31119269 -4.5625 7.875 C-8 9 -8 9 -10 8 C-6.7 5.36 -3.4 2.72 0 0 Z " fill="#FDF3D8" transform="translate(572,416)"/>
<path d="M0 0 C0.66 0.33 1.32 0.66 2 1 C-0.31 4.3 -2.62 7.6 -5 11 C-5.66 10.01 -6.32 9.02 -7 8 C-4.69 5.36 -2.38 2.72 0 0 Z " fill="#FEF9E0" transform="translate(551,336)"/>
<path d="M0 0 C4.47757875 4.47757875 4.52842567 5.26749322 4.75 11.25 C4.80671875 12.51328125 4.8634375 13.7765625 4.921875 15.078125 C4.94765625 16.04234375 4.9734375 17.0065625 5 18 C4.67 18 4.34 18 4 18 C2.68 12.06 1.36 6.12 0 0 Z " fill="#FEF5D6" transform="translate(401,230)"/>
<path d="M0 0 C4.2026393 2.63886654 7.56638098 5.36440339 11 9 C8.03 8.505 8.03 8.505 5 8 C5 7.34 5 6.68 5 6 C4.34 6 3.68 6 3 6 C0 2.53846154 0 2.53846154 0 0 Z " fill="#FEF7DA" transform="translate(104,415)"/>
<path d="M0 0 C7 8.75 7 8.75 7 13 C6.01 13 5.02 13 4 13 C3.525625 11.865625 3.05125 10.73125 2.5625 9.5625 C1.36377917 6.24259834 1.36377917 6.24259834 0 5 C-0.04063832 3.33382885 -0.042721 1.66611905 0 0 Z " fill="#DEBF7B" transform="translate(384,193)"/>
<path d="M0 0 C3 1 3 1 4.203125 2.70703125 C4.54859375 3.40183594 4.8940625 4.09664062 5.25 4.8125 C5.60578125 5.49957031 5.9615625 6.18664062 6.328125 6.89453125 C7.11193544 9.35077442 6.84119973 10.60042386 6 13 C4.99491199 11.21118264 3.99607264 9.41885304 3 7.625 C2.1646875 6.12839844 2.1646875 6.12839844 1.3125 4.6015625 C0 2 0 2 0 0 Z " fill="#FEF8DE" transform="translate(614,182)"/>
<path d="M0 0 C4.75481646 0.57634139 7.97048212 2.55068521 12 5 C12 5.66 12 6.32 12 7 C11.34 6.731875 10.68 6.46375 10 6.1875 C6.35060933 4.74294953 2.67754567 3.37128822 -1 2 C-0.67 1.34 -0.34 0.68 0 0 Z " fill="#E0BE79" transform="translate(265,176)"/>
<path d="M0 0 C4.81033104 2.54664585 8.32442148 4.99027798 12 9 C10.68 9 9.36 9 8 9 C8 8.34 8 7.68 8 7 C7.360625 6.87625 6.72125 6.7525 6.0625 6.625 C5.381875 6.41875 4.70125 6.2125 4 6 C3.67 5.34 3.34 4.68 3 4 C2.01 3.67 1.02 3.34 0 3 C0 2.01 0 1.02 0 0 Z " fill="#DDBD7D" transform="translate(332,135)"/>
<path d="M0 0 C1.12894876 0.93274109 2.25300876 1.87140122 3.375 2.8125 C4.00148438 3.33457031 4.62796875 3.85664063 5.2734375 4.39453125 C7 6 7 6 9 9 C5.75755545 9 4.57798189 8.91269624 2 7 C0.75 3.375 0.75 3.375 0 0 Z " fill="#5972B4" transform="translate(346,343)"/>
<path d="M0 0 C2.86697492 1.28519565 4.97607712 2.57129254 7 5 C7 5.66 7 6.32 7 7 C7.99 7.33 8.98 7.66 10 8 C9.67 8.99 9.34 9.98 9 11 C7.86874978 9.92319498 6.74525081 8.83824365 5.625 7.75 C4.99851563 7.14671875 4.37203125 6.5434375 3.7265625 5.921875 C2.02689839 4.0299412 1.01540134 2.31798691 0 0 Z " fill="#FEF9DE" transform="translate(134,344)"/>
<path d="M0 0 C0.99 0.33 1.98 0.66 3 1 C1.54712339 2.33927721 0.08752741 3.67126847 -1.375 5 C-2.18710938 5.7425 -2.99921875 6.485 -3.8359375 7.25 C-6 9 -6 9 -8 9 C-7.00217242 5.64367085 -6.38142405 4.26048472 -3.4375 2.25 C-2.2309375 1.63125 -2.2309375 1.63125 -1 1 C-0.67 0.67 -0.34 0.34 0 0 Z " fill="#FEF6DB" transform="translate(106,135)"/>
<path d="M0 0 C3.27481575 0.97359387 4.76205109 1.69066641 6.875 4.4375 C8 7 8 7 7 10 C5.83043409 8.52312468 4.66441854 7.04343707 3.5 5.5625 C2.8503125 4.73878906 2.200625 3.91507812 1.53125 3.06640625 C0 1 0 1 0 0 Z " fill="#FDF5DB" transform="translate(265,389)"/>
<path d="M0 0 C1.32 0.33 2.64 0.66 4 1 C4 1.66 4 2.32 4 3 C4.763125 3.28875 5.52625 3.5775 6.3125 3.875 C9 5 9 5 12 7 C12 7.66 12 8.32 12 9 C7.09198451 7.51272258 3.59508707 4.55364515 0 1 C0 0.67 0 0.34 0 0 Z " fill="#FEF6D8" transform="translate(148,359)"/>
<path d="M0 0 C3.46941546 0.45822468 6.67395049 0.89131683 10 2 C10 2.66 10 3.32 10 4 C10.66 4.33 11.32 4.66 12 5 C11.34 5.66 10.68 6.32 10 7 C8.33073546 6.02526874 6.66464358 5.04510211 5 4.0625 C4.071875 3.51722656 3.14375 2.97195312 2.1875 2.41015625 C1.465625 1.94480469 0.74375 1.47945312 0 1 C0 0.67 0 0.34 0 0 Z " fill="#E2BE7A" transform="translate(277,183)"/>
<path d="M0 0 C7.75 -0.125 7.75 -0.125 10 1 C10 1.66 10 2.32 10 3 C10.99 3.33 11.98 3.66 13 4 C11 5 11 5 8.3984375 4.22265625 C6.90183594 3.64837891 6.90183594 3.64837891 5.375 3.0625 C4.37210937 2.68222656 3.36921875 2.30195312 2.3359375 1.91015625 C1.56507813 1.60980469 0.79421875 1.30945313 0 1 C0 0.67 0 0.34 0 0 Z " fill="#FCF4D7" transform="translate(288,111)"/>
<path d="M0 0 C-0.7109375 1.953125 -0.7109375 1.953125 -2 4 C-4.1640625 4.609375 -4.1640625 4.609375 -6.625 4.75 C-7.44226563 4.80671875 -8.25953125 4.8634375 -9.1015625 4.921875 C-9.72804688 4.94765625 -10.35453125 4.9734375 -11 5 C-7.72709962 2.33319229 -4.35126896 0 0 0 Z " fill="#FEF6DD" transform="translate(535,441)"/>
<path d="M0 0 C0.99 0 1.98 0 3 0 C1.79157144 4.43090471 0.48331435 6.98112756 -3 10 C-2.67 8.02 -2.34 6.04 -2 4 C-1.34 4 -0.68 4 0 4 C0 2.68 0 1.36 0 0 Z " fill="#5370B4" transform="translate(444,432)"/>
<path d="M0 0 C-2.82506863 2.9297008 -5.78796065 5.50174717 -9 8 C-9 4 -9 4 -7.3125 1.75 C-4.60609252 -0.29809215 -3.31152874 -0.36794764 0 0 Z " fill="#FDF6DA" transform="translate(487,384)"/>
<path d="M0 0 C7.75 0.75 7.75 0.75 10 3 C9.67 3.99 9.34 4.98 9 6 C6.03 4.35 3.06 2.7 0 1 C0 0.67 0 0.34 0 0 Z " fill="#FDF6DB" transform="translate(255,383)"/>
<path d="M0 0 C0.33 0 0.66 0 1 0 C1.02696365 1.79158489 1.04637917 3.58328473 1.0625 5.375 C1.07410156 6.37273437 1.08570313 7.37046875 1.09765625 8.3984375 C1 11 1 11 0 13 C-0.66 13 -1.32 13 -2 13 C-1.85769192 11.58297487 -1.71099254 10.1663904 -1.5625 8.75 C-1.48128906 7.96109375 -1.40007813 7.1721875 -1.31640625 6.359375 C-1.02365007 4.17635361 -0.57935581 2.1226818 0 0 Z " fill="#FCEFCE" transform="translate(636,308)"/>
<path d="M0 0 C1.12894876 0.93274109 2.25300876 1.87140122 3.375 2.8125 C4.00148438 3.33457031 4.62796875 3.85664063 5.2734375 4.39453125 C7 6 7 6 9 9 C7.0625 8.6875 7.0625 8.6875 5 8 C4.67 7.01 4.34 6.02 4 5 C3.01 5 2.02 5 1 5 C0.67 3.35 0.34 1.7 0 0 Z " fill="#FFF8DA" transform="translate(299,199)"/>
<path d="M0 0 C0.99 0.33 1.98 0.66 3 1 C-0.96 4.465 -0.96 4.465 -5 8 C-5.66 7.34 -6.32 6.68 -7 6 C-2.25 1.125 -2.25 1.125 0 0 Z " fill="#E5F2FE" transform="translate(275,240)"/>
<path d="M0 0 C5.80054339 1.52450179 9.67635324 2.65326391 13 8 C8.27626146 6.37621488 4.05818166 3.89006982 0 1 C0 0.67 0 0.34 0 0 Z " fill="#DFBD7F" transform="translate(512,181)"/>
<path d="M0 0 C2.875 0.25 2.875 0.25 6 1 C7.4375 2.875 7.4375 2.875 8 5 C7.67 5.99 7.34 6.98 7 8 C5.83035398 6.8572081 4.66435444 5.71068285 3.5 4.5625 C2.8503125 3.92441406 2.200625 3.28632813 1.53125 2.62890625 C0 1 0 1 0 0 Z " fill="#FDF1D4" transform="translate(350,149)"/>
<path d="M0 0 C7.75 0.875 7.75 0.875 10 2 C10 2.99 10 3.98 10 5 C6.08788267 3.84414715 3.1254959 2.64465038 0 0 Z " fill="#FCF5D7" transform="translate(539,115)"/>
<path d="M0 0 C1.60495567 0.11442461 3.20898119 0.24194694 4.8125 0.375 C5.70582031 0.44460938 6.59914063 0.51421875 7.51953125 0.5859375 C10 1 10 1 13 3 C8.02398374 4.71050559 4.57383705 3.00885647 0 1 C0 0.67 0 0.34 0 0 Z " fill="#5671B2" transform="translate(386,447)"/>
<path d="M0 0 C2.35964273 0.40683495 3.85934088 0.89814339 5.8125 2.3125 C6.4003125 3.1478125 6.4003125 3.1478125 7 4 C6.57421875 6.10546875 6.57421875 6.10546875 6 8 C4.9970458 6.85675161 3.99770973 5.71032809 3 4.5625 C2.443125 3.92441406 1.88625 3.28632813 1.3125 2.62890625 C0 1 0 1 0 0 Z " fill="#DEBD7C" transform="translate(89,399)"/>
<path d="M0 0 C0.75 1.5625 0.75 1.5625 1 4 C-0.13084437 6.50286409 -1.52139516 8.67007722 -3 11 C-3.66 11 -4.32 11 -5 11 C-3.55049545 7.2089881 -1.84827434 3.6125362 0 0 Z " fill="#DEBE7D" transform="translate(479,391)"/>
<path d="M0 0 C2.375 -0.1875 2.375 -0.1875 5 0 C5.66 0.99 6.32 1.98 7 3 C9.05003955 4.19232613 9.05003955 4.19232613 11 5 C11 5.66 11 6.32 11 7 C6.89188572 5.55007731 3.53144334 3.54592427 0 1 C0 0.67 0 0.34 0 0 Z " fill="#FCF1D3" transform="translate(321,127)"/>
<path d="M0 0 C1.31611677 0.95336021 2.62778961 1.91285774 3.9375 2.875 C4.66839844 3.40867187 5.39929688 3.94234375 6.15234375 4.4921875 C8 6 8 6 9 8 C6.03 7.505 6.03 7.505 3 7 C3 6.34 3 5.68 3 5 C2.505 4.505 2.01 4.01 1.5 3.5 C1.005 3.005 0.51 2.51 0 2 C0 1.34 0 0.68 0 0 Z " fill="#FDF6D9" transform="translate(95,407)"/>
<path d="M0 0 C0.99 0.33 1.98 0.66 3 1 C3 1.66 3 2.32 3 3 C3.66 3 4.32 3 5 3 C5.99 4.485 5.99 4.485 7 6 C7.99 6.66 8.98 7.32 10 8 C9.01 8.33 8.02 8.66 7 9 C5.82737096 7.88121617 4.66204862 6.75476949 3.5 5.625 C2.8503125 4.99851562 2.200625 4.37203125 1.53125 3.7265625 C0 2 0 2 0 0 Z " fill="#4F6CAB" transform="translate(300,389)"/>
<path d="M0 0 C0.66 0 1.32 0 2 0 C0.84414715 3.91211733 -0.35534962 6.8745041 -3 10 C-3.6875 8.1875 -3.6875 8.1875 -4 6 C-2.625 4.4375 -2.625 4.4375 -1 3 C-0.67 2.01 -0.34 1.02 0 0 Z " fill="#E0C07E" transform="translate(621,351)"/>
<path d="M0 0 C2.22825644 2.22825644 2.69239369 3.65761628 3.625 6.625 C4.01558594 7.85089844 4.01558594 7.85089844 4.4140625 9.1015625 C4.60742188 9.72804688 4.80078125 10.35453125 5 11 C2 10 2 10 0.8125 7.75 C0.00061706 5.00208853 -0.16260121 2.84552111 0 0 Z " fill="#D8E9FA" transform="translate(272,343)"/>
<path d="M0 0 C0.33 0 0.66 0 1 0 C1.125 3.375 1.125 3.375 1 7 C0.34 7.66 -0.32 8.32 -1 9 C-1.99 8.67 -2.98 8.34 -4 8 C-2.68 5.36 -1.36 2.72 0 0 Z " fill="#E2BE7B" transform="translate(558,326)"/>
<path d="M0 0 C3.98175544 2.10148204 6.35039045 4.36905358 9 8 C5.88256767 6.49901406 2.84498177 4.97568178 0 3 C0 2.01 0 1.02 0 0 Z " fill="#FFF9DB" transform="translate(528,193)"/>
<path d="M0 0 C3.3 1.65 6.6 3.3 10 5 C10 5.33 10 5.66 10 6 C6.47730515 6.4025937 5.20059192 6.13372795 2.1875 4.125 C1.465625 3.42375 0.74375 2.7225 0 2 C0 1.34 0 0.68 0 0 Z " fill="#E1BC7B" transform="translate(304,118)"/>
<path d="M0 0 C3.41158256 1.13719419 4.11854601 2.04342944 6 5 C6 5.66 6 6.32 6 7 C6.66 7.33 7.32 7.66 8 8 C7.01 8 6.02 8 5 8 C0 2.65116279 0 2.65116279 0 0 Z " fill="#506CAD" transform="translate(293,380)"/>
<path d="M0 0 C3.43927579 1.2419607 6.25207819 2.55740284 9 5 C9 5.66 9 6.32 9 7 C5.18315774 5.44499019 2.80804268 2.96404505 0 0 Z " fill="#E0EFFC" transform="translate(360,356)"/>
<path d="M0 0 C5.75 3.625 5.75 3.625 8 7 C5 7 5 7 2.3125 4.625 C0 2 0 2 0 0 Z " fill="#5A76B5" transform="translate(297,242)"/>
<path d="M0 0 C2.66666667 2.66666667 5.33333333 5.33333333 8 8 C6.35 7.67 4.7 7.34 3 7 C3 6.34 3 5.68 3 5 C2.34 5 1.68 5 1 5 C0.67 3.35 0.34 1.7 0 0 Z " fill="#FBF1D4" transform="translate(403,160)"/>
<path d="M0 0 C-4.455 2.97 -4.455 2.97 -9 6 C-9 5.01 -9 4.02 -9 3 C-8.34 3 -7.68 3 -7 3 C-7 2.34 -7 1.68 -7 1 C-3.375 -1.125 -3.375 -1.125 0 0 Z " fill="#FEF5D6" transform="translate(119,129)"/>
<path d="M0 0 C3 2 3 2 3.51171875 4.3828125 C3.56972656 5.28773438 3.62773438 6.19265625 3.6875 7.125 C3.75324219 8.03507812 3.81898437 8.94515625 3.88671875 9.8828125 C3.92410156 10.58148438 3.96148437 11.28015625 4 12 C2.09681116 9.14521674 1.5380901 7.58058692 0.875 4.3125 C0.70742187 3.50425781 0.53984375 2.69601562 0.3671875 1.86328125 C0.24601562 1.24839844 0.12484375 0.63351562 0 0 Z " fill="#FEF5D8" transform="translate(116,307)"/>
<path d="M0 0 C3.75376152 1.25125384 4.24073289 2.5652404 6 6 C6 6.66 6 7.32 6 8 C2.24623848 6.74874616 1.75926711 5.4347596 0 2 C0 1.34 0 0.68 0 0 Z " fill="#FEF6DD" transform="translate(321,228)"/>
<path d="M0 0 C2.31 1.98 4.62 3.96 7 6 C5.68 6.33 4.36 6.66 3 7 C0 2.25 0 2.25 0 0 Z " fill="#FEF6DD" transform="translate(537,201)"/>
<path d="M0 0 C3.3 1.65 6.6 3.3 10 5 C7 6 7 6 3.875 4.75 C1 3 1 3 0 0 Z " fill="#FEF7DB" transform="translate(512,182)"/>
<path d="M0 0 C0.66 0.33 1.32 0.66 2 1 C1.01 2.485 1.01 2.485 0 4 C-3.625 4.6875 -3.625 4.6875 -7 5 C-2.25 1.125 -2.25 1.125 0 0 Z " fill="#FEF8DD" transform="translate(550,432)"/>
<path d="M0 0 C2.31 0 4.62 0 7 0 C7.33 1.32 7.66 2.64 8 4 C2.25 2.25 2.25 2.25 0 0 Z " fill="#FDF4D6" transform="translate(168,373)"/>
<path d="M0 0 C4 2 4 2 5.25 5.125 C5.4975 6.07375 5.745 7.0225 6 8 C5.01 8.495 5.01 8.495 4 9 C2.68 6.03 1.36 3.06 0 0 Z " fill="#5873B7" transform="translate(278,356)"/>
<path d="M0 0 C1.32 0.33 2.64 0.66 4 1 C4 1.99 4 2.98 4 4 C4.66 4 5.32 4 6 4 C5.67 5.32 5.34 6.64 5 8 C2.525 4.04 2.525 4.04 0 0 Z " fill="#FDF6D7" transform="translate(128,336)"/>
<path d="M0 0 C2.29633824 3.44450737 2.54016485 5.93812283 3 10 C2.01 9.34 1.02 8.68 0 8 C-0.40843923 5.28796348 -0.13336867 2.7562858 0 0 Z " fill="#FDF4D7" transform="translate(335,258)"/>
<path d="M0 0 C2.97 0.495 2.97 0.495 6 1 C6.33 2.65 6.66 4.3 7 6 C5.83054208 5.19152271 4.66449539 4.37810888 3.5 3.5625 C2.8503125 3.11003906 2.200625 2.65757812 1.53125 2.19140625 C1.0259375 1.79824219 0.520625 1.40507812 0 1 C0 0.67 0 0.34 0 0 Z " fill="#E1BE78" transform="translate(528,192)"/>
<path d="M0 0 C5.75 0.875 5.75 0.875 8 2 C7.67 2.99 7.34 3.98 7 5 C3.535 3.02 3.535 3.02 0 1 C0 0.67 0 0.34 0 0 Z " fill="#FDF5D9" transform="translate(553,122)"/>
<path d="M0 0 C3.63 0.33 7.26 0.66 11 1 C10.34 1.66 9.68 2.32 9 3 C5.19090105 2.67582137 3.21627837 2.14418558 0 0 Z " fill="#FCF3D5" transform="translate(275,106)"/>
<path d="M0 0 C0.99 0 1.98 0 3 0 C4.75 2.3125 4.75 2.3125 6 5 C5.67 5.99 5.34 6.98 5 8 C2.525 4.04 2.525 4.04 0 0 Z " fill="#FDF2D1" transform="translate(274,401)"/>
<path d="M0 0 C0.6875 1.6875 0.6875 1.6875 1 4 C-0.3125 6.75 -0.3125 6.75 -2 9 C-2.66 9 -3.32 9 -4 9 C-2.94124926 5.59687262 -1.99097846 2.98646769 0 0 Z " fill="#FDF6D6" transform="translate(619,359)"/>
<path d="M0 0 C0.99 0 1.98 0 3 0 C4.35439668 2.70879335 4.06501451 5.00933268 4 8 C1.84622436 5.37801226 0.59927826 3.35595828 0 0 Z " fill="#FEF4D6" transform="translate(120,320)"/>
<path d="M0 0 C2.50298434 2.93828597 3.46930939 5.17902761 4 9 C3.34 9 2.68 9 2 9 C0.50178941 5.62902617 0 3.79557881 0 0 Z " fill="#5A75B2" transform="translate(315,265)"/>
<path d="M0 0 C0.66 0 1.32 0 2 0 C2 0.66 2 1.32 2 2 C2.66 2 3.32 2 4 2 C4.99 3.485 4.99 3.485 6 5 C5.67 6.32 5.34 7.64 5 9 C3.35 6.03 1.7 3.06 0 0 Z " fill="#FDF4D4" transform="translate(373,175)"/>
<path d="M0 0 C1.98 0.99 1.98 0.99 4 2 C4 2.99 4 3.98 4 5 C4.66 5 5.32 5 6 5 C5.67 6.32 5.34 7.64 5 9 C3.35 6.03 1.7 3.06 0 0 Z " fill="#FDF1D3" transform="translate(606,170)"/>
<path d="M0 0 C4.75 1.875 4.75 1.875 7 3 C6.67 4.32 6.34 5.64 6 7 C4.02 4.69 2.04 2.38 0 0 Z " fill="#FEF7DB" transform="translate(343,142)"/>
<path d="M0 0 C2.75 -0.25 2.75 -0.25 6 0 C8.375 2 8.375 2 10 4 C6.7 3.01 3.4 2.02 0 1 C0 0.67 0 0.34 0 0 Z " fill="#FBF1D2" transform="translate(529,111)"/>
</svg>
